<svg width="248" height="166" viewBox="0 0 248 166" fill="none" xmlns="http://www.w3.org/2000/svg">
<path d="M72.4 150C69.2 149.833 66.5 148.6 64.3 146.3C62.1 144 61 141.233 61 138C61 134.667 62.1667 131.833 64.5 129.5C66.8333 127.167 69.6667 126 73 126C76.2333 126 79 127.1 81.3 129.3C83.6 131.5 84.8333 134.217 85 137.45L81.85 136.45C81.4833 134.317 80.4833 132.542 78.85 131.125C77.2167 129.708 75.2667 129 73 129C70.5 129 68.375 129.875 66.625 131.625C64.875 133.375 64 135.5 64 138C64 140.233 64.7083 142.175 66.125 143.825C67.5417 145.475 69.3167 146.483 71.45 146.85L72.4 150ZM74.8 157.9C74.5 157.933 74.2 157.958 73.9 157.975C73.6 157.992 73.3 158 73 158C70.2333 158 67.6333 157.475 65.2 156.425C62.7667 155.375 60.65 153.95 58.85 152.15C57.05 150.35 55.625 148.233 54.575 145.8C53.525 143.367 53 140.767 53 138C53 135.233 53.525 132.633 54.575 130.2C55.625 127.767 57.05 125.65 58.85 123.85C60.65 122.05 62.7667 120.625 65.2 119.575C67.6333 118.525 70.2333 118 73 118C75.7667 118 78.3667 118.525 80.8 119.575C83.2333 120.625 85.35 122.05 87.15 123.85C88.95 125.65 90.375 127.767 91.425 130.2C92.475 132.633 93 135.233 93 138C93 138.3 92.9917 138.6 92.975 138.9C92.9583 139.2 92.9333 139.5 92.9 139.8L90 138.9V138C90 133.267 88.35 129.25 85.05 125.95C81.75 122.65 77.7333 121 73 121C68.2667 121 64.25 122.65 60.95 125.95C57.65 129.25 56 133.267 56 138C56 142.733 57.65 146.75 60.95 150.05C64.25 153.35 68.2667 155 73 155H73.9L74.8 157.9ZM90.05 159L81.5 150.45L79 158L73 138L93 144L85.45 146.5L94 155.05L90.05 159Z" fill="#EF4444"/>
<path d="M133.932 137H130.409C130.201 135.987 129.836 135.097 129.315 134.33C128.804 133.562 128.179 132.919 127.44 132.398C126.711 131.867 125.902 131.47 125.011 131.205C124.121 130.939 123.193 130.807 122.227 130.807C120.466 130.807 118.87 131.252 117.44 132.142C116.02 133.032 114.888 134.344 114.045 136.077C113.212 137.81 112.795 139.936 112.795 142.455C112.795 144.973 113.212 147.099 114.045 148.832C114.888 150.565 116.02 151.877 117.44 152.767C118.87 153.657 120.466 154.102 122.227 154.102C123.193 154.102 124.121 153.97 125.011 153.705C125.902 153.439 126.711 153.046 127.44 152.526C128.179 151.995 128.804 151.347 129.315 150.58C129.836 149.803 130.201 148.913 130.409 147.909H133.932C133.667 149.396 133.184 150.726 132.483 151.901C131.782 153.075 130.911 154.074 129.869 154.898C128.828 155.712 127.658 156.332 126.361 156.759C125.073 157.185 123.695 157.398 122.227 157.398C119.746 157.398 117.54 156.792 115.608 155.58C113.676 154.367 112.156 152.644 111.048 150.409C109.94 148.174 109.386 145.523 109.386 142.455C109.386 139.386 109.94 136.735 111.048 134.5C112.156 132.265 113.676 130.542 115.608 129.33C117.54 128.117 119.746 127.511 122.227 127.511C123.695 127.511 125.073 127.724 126.361 128.151C127.658 128.577 128.828 129.202 129.869 130.026C130.911 130.84 131.782 131.834 132.483 133.009C133.184 134.173 133.667 135.504 133.932 137ZM142.522 127.909V157H139.17V127.909H142.522ZM148.662 157V135.182H152.014V157H148.662ZM150.366 131.545C149.713 131.545 149.15 131.323 148.676 130.878C148.212 130.433 147.98 129.898 147.98 129.273C147.98 128.648 148.212 128.113 148.676 127.668C149.15 127.223 149.713 127 150.366 127C151.02 127 151.579 127.223 152.043 127.668C152.516 128.113 152.753 128.648 152.753 129.273C152.753 129.898 152.516 130.433 152.043 130.878C151.579 131.323 151.02 131.545 150.366 131.545ZM167.018 157.455C164.972 157.455 163.211 156.972 161.734 156.006C160.256 155.04 159.12 153.709 158.325 152.014C157.529 150.319 157.131 148.383 157.131 146.205C157.131 143.989 157.539 142.033 158.353 140.338C159.177 138.634 160.323 137.303 161.79 136.347C163.268 135.381 164.991 134.898 166.961 134.898C168.495 134.898 169.878 135.182 171.109 135.75C172.34 136.318 173.348 137.114 174.134 138.136C174.92 139.159 175.408 140.352 175.597 141.716H172.245C171.989 140.722 171.421 139.841 170.54 139.074C169.669 138.297 168.495 137.909 167.018 137.909C165.711 137.909 164.565 138.25 163.58 138.932C162.605 139.604 161.843 140.556 161.293 141.787C160.754 143.009 160.484 144.443 160.484 146.091C160.484 147.777 160.749 149.244 161.279 150.494C161.819 151.744 162.576 152.715 163.552 153.406C164.537 154.098 165.692 154.443 167.018 154.443C167.889 154.443 168.68 154.292 169.39 153.989C170.1 153.686 170.701 153.25 171.194 152.682C171.686 152.114 172.037 151.432 172.245 150.636H175.597C175.408 151.924 174.939 153.084 174.191 154.116C173.452 155.139 172.472 155.954 171.251 156.56C170.039 157.156 168.628 157.455 167.018 157.455ZM183.623 149.045L183.566 144.898H184.248L193.793 135.182H197.941L187.771 145.466H187.487L183.623 149.045ZM180.498 157V127.909H183.85V157H180.498ZM194.362 157L185.839 146.205L188.225 143.875L198.623 157H194.362Z" fill="#EF4444"/>
<rect width="248" height="45" rx="5" fill="white"/>
<path d="M30.2578 26.8281L33.0898 17.4336H35.8535L31.6152 29.6016C31.5176 29.862 31.3906 30.1452 31.2344 30.4512C31.0846 30.7572 30.8828 31.0469 30.6289 31.3203C30.375 31.6003 30.056 31.8281 29.6719 32.0039C29.2943 32.1797 28.8353 32.2676 28.2949 32.2676C28.0605 32.2676 27.8522 32.2513 27.6699 32.2188C27.4876 32.1862 27.2956 32.1439 27.0938 32.0918V30.1582C27.1589 30.1647 27.2337 30.168 27.3184 30.168C27.4095 30.1745 27.4876 30.1777 27.5527 30.1777C27.9303 30.1777 28.2428 30.1322 28.4902 30.041C28.7376 29.9564 28.9362 29.8164 29.0859 29.6211C29.2422 29.4323 29.3724 29.1849 29.4766 28.8789L30.2578 26.8281ZM28.8613 17.4336L31.2539 25.2168L31.6738 27.9414L29.8965 28.2637L26.0781 17.4336H28.8613ZM36.4883 22.8242V22.6191C36.4883 21.8444 36.599 21.1315 36.8203 20.4805C37.0417 19.8229 37.3639 19.2533 37.7871 18.7715C38.2103 18.2897 38.7279 17.9154 39.3398 17.6484C39.9518 17.375 40.6484 17.2383 41.4297 17.2383C42.224 17.2383 42.9271 17.375 43.5391 17.6484C44.1576 17.9154 44.6784 18.2897 45.1016 18.7715C45.5247 19.2533 45.847 19.8229 46.0684 20.4805C46.2897 21.1315 46.4004 21.8444 46.4004 22.6191V22.8242C46.4004 23.5924 46.2897 24.3053 46.0684 24.9629C45.847 25.6139 45.5247 26.1836 45.1016 26.6719C44.6784 27.1536 44.1608 27.528 43.5488 27.7949C42.9368 28.0618 42.237 28.1953 41.4492 28.1953C40.668 28.1953 39.9681 28.0618 39.3496 27.7949C38.7311 27.528 38.2103 27.1536 37.7871 26.6719C37.3639 26.1836 37.0417 25.6139 36.8203 24.9629C36.599 24.3053 36.4883 23.5924 36.4883 22.8242ZM39.0664 22.6191V22.8242C39.0664 23.2865 39.112 23.7194 39.2031 24.123C39.2943 24.5267 39.4342 24.8815 39.623 25.1875C39.8118 25.4935 40.056 25.7344 40.3555 25.9102C40.6615 26.0794 41.026 26.1641 41.4492 26.1641C41.8659 26.1641 42.224 26.0794 42.5234 25.9102C42.8229 25.7344 43.0671 25.4935 43.2559 25.1875C43.4512 24.8815 43.5944 24.5267 43.6855 24.123C43.7767 23.7194 43.8223 23.2865 43.8223 22.8242V22.6191C43.8223 22.1634 43.7767 21.737 43.6855 21.3398C43.5944 20.9362 43.4512 20.5814 43.2559 20.2754C43.0671 19.9629 42.8197 19.7188 42.5137 19.543C42.2142 19.3607 41.8529 19.2695 41.4297 19.2695C41.013 19.2695 40.6549 19.3607 40.3555 19.543C40.056 19.7188 39.8118 19.9629 39.623 20.2754C39.4342 20.5814 39.2943 20.9362 39.2031 21.3398C39.112 21.737 39.0664 22.1634 39.0664 22.6191ZM54.5645 25.4902V17.4336H57.1621V28H54.7207L54.5645 25.4902ZM54.8965 23.3027L55.6973 23.2832C55.6973 23.9928 55.6191 24.6471 55.4629 25.2461C55.3066 25.8451 55.0625 26.3659 54.7305 26.8086C54.4049 27.2448 53.9915 27.5866 53.4902 27.834C52.9889 28.0749 52.3965 28.1953 51.7129 28.1953C51.1921 28.1953 50.7168 28.1237 50.2871 27.9805C49.8574 27.8307 49.4863 27.5996 49.1738 27.2871C48.8678 26.9681 48.6302 26.5612 48.4609 26.0664C48.2917 25.5651 48.207 24.9629 48.207 24.2598V17.4336H50.7852V24.2793C50.7852 24.6309 50.8242 24.9238 50.9023 25.1582C50.987 25.3926 51.1009 25.5846 51.2441 25.7344C51.3939 25.8776 51.5664 25.9818 51.7617 26.0469C51.9635 26.1055 52.1784 26.1348 52.4062 26.1348C53.0312 26.1348 53.5228 26.0111 53.8809 25.7637C54.2454 25.5098 54.5059 25.1712 54.6621 24.748C54.8184 24.3184 54.8965 23.8366 54.8965 23.3027ZM64.4473 17.4336V19.2891H58.3926V17.4336H64.4473ZM60.0137 14.8359H62.6016V24.9531C62.6016 25.2656 62.6439 25.5065 62.7285 25.6758C62.8132 25.8451 62.9401 25.959 63.1094 26.0176C63.2786 26.0762 63.4805 26.1055 63.7148 26.1055C63.8841 26.1055 64.0404 26.0957 64.1836 26.0762C64.3268 26.0566 64.4473 26.0371 64.5449 26.0176L64.5547 27.9512C64.3398 28.0228 64.0957 28.0814 63.8223 28.127C63.5553 28.1725 63.2526 28.1953 62.9141 28.1953C62.3346 28.1953 61.8268 28.0977 61.3906 27.9023C60.9544 27.7005 60.6159 27.3783 60.375 26.9355C60.1341 26.4863 60.0137 25.8939 60.0137 25.1582V14.8359ZM72.4551 25.4902V17.4336H75.0527V28H72.6113L72.4551 25.4902ZM72.7871 23.3027L73.5879 23.2832C73.5879 23.9928 73.5098 24.6471 73.3535 25.2461C73.1973 25.8451 72.9531 26.3659 72.6211 26.8086C72.2956 27.2448 71.8822 27.5866 71.3809 27.834C70.8796 28.0749 70.2871 28.1953 69.6035 28.1953C69.0827 28.1953 68.6074 28.1237 68.1777 27.9805C67.748 27.8307 67.377 27.5996 67.0645 27.2871C66.7585 26.9681 66.5208 26.5612 66.3516 26.0664C66.1823 25.5651 66.0977 24.9629 66.0977 24.2598V17.4336H68.6758V24.2793C68.6758 24.6309 68.7148 24.9238 68.793 25.1582C68.8776 25.3926 68.9915 25.5846 69.1348 25.7344C69.2845 25.8776 69.457 25.9818 69.6523 26.0469C69.8542 26.1055 70.069 26.1348 70.2969 26.1348C70.9219 26.1348 71.4134 26.0111 71.7715 25.7637C72.1361 25.5098 72.3965 25.1712 72.5527 24.748C72.709 24.3184 72.7871 23.8366 72.7871 23.3027ZM77.3281 13H79.916V25.666L79.6621 28H77.3281V13ZM86.7129 22.6094V22.8145C86.7129 23.6022 86.625 24.3249 86.4492 24.9824C86.2799 25.64 86.0228 26.2096 85.6777 26.6914C85.3327 27.1667 84.903 27.5378 84.3887 27.8047C83.8809 28.0651 83.2852 28.1953 82.6016 28.1953C81.9505 28.1953 81.3841 28.0684 80.9023 27.8145C80.4271 27.5605 80.0267 27.2025 79.7012 26.7402C79.3757 26.2715 79.1152 25.7214 78.9199 25.0898C78.7246 24.4518 78.5781 23.7552 78.4805 23V22.4434C78.5781 21.6816 78.7246 20.985 78.9199 20.3535C79.1152 19.722 79.3757 19.1719 79.7012 18.7031C80.0267 18.2344 80.4271 17.873 80.9023 17.6191C81.3776 17.3652 81.9375 17.2383 82.582 17.2383C83.2721 17.2383 83.8743 17.3717 84.3887 17.6387C84.9095 17.8991 85.3392 18.2702 85.6777 18.752C86.0228 19.2272 86.2799 19.7936 86.4492 20.4512C86.625 21.1022 86.7129 21.8216 86.7129 22.6094ZM84.125 22.8145V22.6094C84.125 22.1602 84.0892 21.737 84.0176 21.3398C83.946 20.9362 83.8288 20.5814 83.666 20.2754C83.5033 19.9694 83.2819 19.7285 83.002 19.5527C82.722 19.377 82.3704 19.2891 81.9473 19.2891C81.5436 19.2891 81.1986 19.3574 80.9121 19.4941C80.6322 19.6309 80.3978 19.8197 80.209 20.0605C80.0267 20.3014 79.8835 20.5846 79.7793 20.9102C79.6816 21.2357 79.6165 21.5872 79.584 21.9648V23.4883C79.6296 23.9896 79.737 24.4421 79.9062 24.8457C80.0755 25.2428 80.3262 25.5586 80.6582 25.793C80.9967 26.0273 81.4329 26.1445 81.9668 26.1445C82.3835 26.1445 82.7318 26.0632 83.0117 25.9004C83.2917 25.7311 83.513 25.4967 83.6758 25.1973C83.8385 24.8913 83.9525 24.5365 84.0176 24.1328C84.0892 23.7292 84.125 23.2897 84.125 22.8145ZM93.334 28.1953C92.5332 28.1953 91.8138 28.0651 91.1758 27.8047C90.5378 27.5443 89.9941 27.1829 89.5449 26.7207C89.1022 26.252 88.7604 25.7083 88.5195 25.0898C88.2852 24.4648 88.168 23.7943 88.168 23.0781V22.6875C88.168 21.8737 88.2852 21.1348 88.5195 20.4707C88.7539 19.8001 89.0859 19.224 89.5156 18.7422C89.9453 18.2604 90.4596 17.8893 91.0586 17.6289C91.6576 17.3685 92.3184 17.2383 93.041 17.2383C93.7897 17.2383 94.4505 17.3652 95.0234 17.6191C95.5964 17.8665 96.0749 18.2181 96.459 18.6738C96.8431 19.1296 97.1328 19.6764 97.3281 20.3145C97.5234 20.946 97.6211 21.6458 97.6211 22.4141V23.498H89.3398V21.7207H95.082V21.5254C95.069 21.1152 94.9909 20.7409 94.8477 20.4023C94.7044 20.0573 94.4831 19.7839 94.1836 19.582C93.8841 19.3737 93.4967 19.2695 93.0215 19.2695C92.6374 19.2695 92.3021 19.3542 92.0156 19.5234C91.7357 19.6862 91.5013 19.9206 91.3125 20.2266C91.1302 20.526 90.9935 20.8841 90.9023 21.3008C90.8112 21.7174 90.7656 22.1797 90.7656 22.6875V23.0781C90.7656 23.5208 90.8242 23.931 90.9414 24.3086C91.0651 24.6862 91.2441 25.015 91.4785 25.2949C91.7194 25.5684 92.0059 25.7832 92.3379 25.9395C92.6764 26.0892 93.0605 26.1641 93.4902 26.1641C94.0306 26.1641 94.5189 26.0599 94.9551 25.8516C95.3978 25.6367 95.7819 25.321 96.1074 24.9043L97.4062 26.252C97.1849 26.5775 96.8854 26.89 96.5078 27.1895C96.1367 27.4889 95.6875 27.7331 95.1602 27.9219C94.6328 28.1042 94.0241 28.1953 93.334 28.1953ZM99.457 26.7402C99.457 26.3496 99.5905 26.0208 99.8574 25.7539C100.124 25.487 100.486 25.3535 100.941 25.3535C101.397 25.3535 101.758 25.487 102.025 25.7539C102.292 26.0208 102.426 26.3496 102.426 26.7402C102.426 27.1243 102.292 27.4499 102.025 27.7168C101.758 27.9772 101.397 28.1074 100.941 28.1074C100.486 28.1074 100.124 27.9772 99.8574 27.7168C99.5905 27.4499 99.457 27.1243 99.457 26.7402ZM109.369 26.1641C109.734 26.1641 110.059 26.0924 110.346 25.9492C110.632 25.806 110.86 25.6042 111.029 25.3438C111.205 25.0833 111.299 24.7806 111.312 24.4355H113.744C113.731 25.1517 113.529 25.793 113.139 26.3594C112.748 26.9258 112.227 27.375 111.576 27.707C110.932 28.0326 110.209 28.1953 109.408 28.1953C108.594 28.1953 107.885 28.0586 107.279 27.7852C106.674 27.5117 106.169 27.1309 105.766 26.6426C105.368 26.1543 105.069 25.5879 104.867 24.9434C104.672 24.2988 104.574 23.6087 104.574 22.873V22.5605C104.574 21.8249 104.672 21.1348 104.867 20.4902C105.069 19.8457 105.368 19.2793 105.766 18.791C106.169 18.3027 106.674 17.9219 107.279 17.6484C107.885 17.375 108.591 17.2383 109.398 17.2383C110.251 17.2383 111 17.4043 111.645 17.7363C112.296 18.0684 112.803 18.5371 113.168 19.1426C113.539 19.748 113.731 20.4609 113.744 21.2812H111.312C111.299 20.9036 111.215 20.5651 111.059 20.2656C110.902 19.9661 110.681 19.7253 110.395 19.543C110.108 19.3607 109.76 19.2695 109.35 19.2695C108.913 19.2695 108.549 19.3607 108.256 19.543C107.969 19.7253 107.745 19.9759 107.582 20.2949C107.426 20.6074 107.315 20.959 107.25 21.3496C107.191 21.7337 107.162 22.1374 107.162 22.5605V22.873C107.162 23.3027 107.191 23.7129 107.25 24.1035C107.315 24.4941 107.426 24.8457 107.582 25.1582C107.745 25.4642 107.969 25.7083 108.256 25.8906C108.549 26.0729 108.92 26.1641 109.369 26.1641ZM115.004 22.8242V22.6191C115.004 21.8444 115.115 21.1315 115.336 20.4805C115.557 19.8229 115.88 19.2533 116.303 18.7715C116.726 18.2897 117.243 17.9154 117.855 17.6484C118.467 17.375 119.164 17.2383 119.945 17.2383C120.74 17.2383 121.443 17.375 122.055 17.6484C122.673 17.9154 123.194 18.2897 123.617 18.7715C124.04 19.2533 124.363 19.8229 124.584 20.4805C124.805 21.1315 124.916 21.8444 124.916 22.6191V22.8242C124.916 23.5924 124.805 24.3053 124.584 24.9629C124.363 25.6139 124.04 26.1836 123.617 26.6719C123.194 27.1536 122.676 27.528 122.064 27.7949C121.452 28.0618 120.753 28.1953 119.965 28.1953C119.184 28.1953 118.484 28.0618 117.865 27.7949C117.247 27.528 116.726 27.1536 116.303 26.6719C115.88 26.1836 115.557 25.6139 115.336 24.9629C115.115 24.3053 115.004 23.5924 115.004 22.8242ZM117.582 22.6191V22.8242C117.582 23.2865 117.628 23.7194 117.719 24.123C117.81 24.5267 117.95 24.8815 118.139 25.1875C118.327 25.4935 118.572 25.7344 118.871 25.9102C119.177 26.0794 119.542 26.1641 119.965 26.1641C120.382 26.1641 120.74 26.0794 121.039 25.9102C121.339 25.7344 121.583 25.4935 121.771 25.1875C121.967 24.8815 122.11 24.5267 122.201 24.123C122.292 23.7194 122.338 23.2865 122.338 22.8242V22.6191C122.338 22.1634 122.292 21.737 122.201 21.3398C122.11 20.9362 121.967 20.5814 121.771 20.2754C121.583 19.9629 121.335 19.7188 121.029 19.543C120.73 19.3607 120.368 19.2695 119.945 19.2695C119.529 19.2695 119.171 19.3607 118.871 19.543C118.572 19.7188 118.327 19.9629 118.139 20.2754C117.95 20.5814 117.81 20.9362 117.719 21.3398C117.628 21.737 117.582 22.1634 117.582 22.6191ZM129.359 19.6016V28H126.781V17.4336H129.213L129.359 19.6016ZM128.979 22.3359H128.188C128.188 21.6003 128.275 20.9232 128.451 20.3047C128.633 19.6862 128.9 19.1491 129.252 18.6934C129.604 18.2311 130.036 17.873 130.551 17.6191C131.072 17.3652 131.674 17.2383 132.357 17.2383C132.833 17.2383 133.269 17.3099 133.666 17.4531C134.063 17.5898 134.405 17.8079 134.691 18.1074C134.984 18.4004 135.209 18.7845 135.365 19.2598C135.521 19.7285 135.6 20.2917 135.6 20.9492V28H133.021V21.2129C133.021 20.7181 132.95 20.3307 132.807 20.0508C132.67 19.7708 132.471 19.5755 132.211 19.4648C131.951 19.3477 131.638 19.2891 131.273 19.2891C130.87 19.2891 130.521 19.3704 130.229 19.5332C129.942 19.6895 129.704 19.9076 129.516 20.1875C129.333 20.4674 129.197 20.7897 129.105 21.1543C129.021 21.5189 128.979 21.9128 128.979 22.3359ZM135.404 21.8574L134.34 22.0527C134.346 21.3887 134.438 20.7669 134.613 20.1875C134.789 19.6016 135.046 19.0905 135.385 18.6543C135.73 18.2116 136.156 17.8665 136.664 17.6191C137.178 17.3652 137.771 17.2383 138.441 17.2383C138.962 17.2383 139.431 17.3132 139.848 17.4629C140.271 17.6061 140.632 17.8372 140.932 18.1562C141.231 18.4688 141.459 18.8757 141.615 19.377C141.778 19.8783 141.859 20.4902 141.859 21.2129V28H139.262V21.2031C139.262 20.6888 139.19 20.2949 139.047 20.0215C138.91 19.748 138.712 19.5592 138.451 19.4551C138.191 19.3444 137.885 19.2891 137.533 19.2891C137.175 19.2891 136.863 19.3574 136.596 19.4941C136.335 19.6243 136.114 19.8066 135.932 20.041C135.756 20.2754 135.622 20.5488 135.531 20.8613C135.447 21.1673 135.404 21.4993 135.404 21.8574ZM150.287 13.7812L144.916 29.2207H142.953L148.324 13.7812H150.287ZM154.887 26.8281L157.719 17.4336H160.482L156.244 29.6016C156.146 29.862 156.02 30.1452 155.863 30.4512C155.714 30.7572 155.512 31.0469 155.258 31.3203C155.004 31.6003 154.685 31.8281 154.301 32.0039C153.923 32.1797 153.464 32.2676 152.924 32.2676C152.689 32.2676 152.481 32.2513 152.299 32.2188C152.117 32.1862 151.924 32.1439 151.723 32.0918V30.1582C151.788 30.1647 151.863 30.168 151.947 30.168C152.038 30.1745 152.117 30.1777 152.182 30.1777C152.559 30.1777 152.872 30.1322 153.119 30.041C153.367 29.9564 153.565 29.8164 153.715 29.6211C153.871 29.4323 154.001 29.1849 154.105 28.8789L154.887 26.8281ZM153.49 17.4336L155.883 25.2168L156.303 27.9414L154.525 28.2637L150.707 17.4336H153.49ZM161.117 22.8242V22.6191C161.117 21.8444 161.228 21.1315 161.449 20.4805C161.671 19.8229 161.993 19.2533 162.416 18.7715C162.839 18.2897 163.357 17.9154 163.969 17.6484C164.581 17.375 165.277 17.2383 166.059 17.2383C166.853 17.2383 167.556 17.375 168.168 17.6484C168.786 17.9154 169.307 18.2897 169.73 18.7715C170.154 19.2533 170.476 19.8229 170.697 20.4805C170.919 21.1315 171.029 21.8444 171.029 22.6191V22.8242C171.029 23.5924 170.919 24.3053 170.697 24.9629C170.476 25.6139 170.154 26.1836 169.73 26.6719C169.307 27.1536 168.79 27.528 168.178 27.7949C167.566 28.0618 166.866 28.1953 166.078 28.1953C165.297 28.1953 164.597 28.0618 163.979 27.7949C163.36 27.528 162.839 27.1536 162.416 26.6719C161.993 26.1836 161.671 25.6139 161.449 24.9629C161.228 24.3053 161.117 23.5924 161.117 22.8242ZM163.695 22.6191V22.8242C163.695 23.2865 163.741 23.7194 163.832 24.123C163.923 24.5267 164.063 24.8815 164.252 25.1875C164.441 25.4935 164.685 25.7344 164.984 25.9102C165.29 26.0794 165.655 26.1641 166.078 26.1641C166.495 26.1641 166.853 26.0794 167.152 25.9102C167.452 25.7344 167.696 25.4935 167.885 25.1875C168.08 24.8815 168.223 24.5267 168.314 24.123C168.406 23.7194 168.451 23.2865 168.451 22.8242V22.6191C168.451 22.1634 168.406 21.737 168.314 21.3398C168.223 20.9362 168.08 20.5814 167.885 20.2754C167.696 19.9629 167.449 19.7188 167.143 19.543C166.843 19.3607 166.482 19.2695 166.059 19.2695C165.642 19.2695 165.284 19.3607 164.984 19.543C164.685 19.7188 164.441 19.9629 164.252 20.2754C164.063 20.5814 163.923 20.9362 163.832 21.3398C163.741 21.737 163.695 22.1634 163.695 22.6191ZM179.193 25.4902V17.4336H181.791V28H179.35L179.193 25.4902ZM179.525 23.3027L180.326 23.2832C180.326 23.9928 180.248 24.6471 180.092 25.2461C179.936 25.8451 179.691 26.3659 179.359 26.8086C179.034 27.2448 178.62 27.5866 178.119 27.834C177.618 28.0749 177.025 28.1953 176.342 28.1953C175.821 28.1953 175.346 28.1237 174.916 27.9805C174.486 27.8307 174.115 27.5996 173.803 27.2871C173.497 26.9681 173.259 26.5612 173.09 26.0664C172.921 25.5651 172.836 24.9629 172.836 24.2598V17.4336H175.414V24.2793C175.414 24.6309 175.453 24.9238 175.531 25.1582C175.616 25.3926 175.73 25.5846 175.873 25.7344C176.023 25.8776 176.195 25.9818 176.391 26.0469C176.592 26.1055 176.807 26.1348 177.035 26.1348C177.66 26.1348 178.152 26.0111 178.51 25.7637C178.874 25.5098 179.135 25.1712 179.291 24.748C179.447 24.3184 179.525 23.8366 179.525 23.3027ZM186.654 19.5918V28H184.076V17.4336H186.518L186.654 19.5918ZM189.867 17.3652L189.828 19.7676C189.685 19.7415 189.522 19.722 189.34 19.709C189.164 19.696 188.998 19.6895 188.842 19.6895C188.445 19.6895 188.096 19.7448 187.797 19.8555C187.497 19.9596 187.247 20.1126 187.045 20.3145C186.85 20.5163 186.7 20.7637 186.596 21.0566C186.492 21.3431 186.433 21.6686 186.42 22.0332L185.863 21.9648C185.863 21.2943 185.932 20.6725 186.068 20.0996C186.205 19.5267 186.404 19.0254 186.664 18.5957C186.924 18.166 187.25 17.834 187.641 17.5996C188.038 17.3587 188.493 17.2383 189.008 17.2383C189.151 17.2383 189.304 17.2513 189.467 17.2773C189.636 17.2969 189.77 17.3262 189.867 17.3652ZM194.018 13V28H191.43V13H194.018ZM199.213 17.4336V28H196.625V17.4336H199.213ZM196.449 14.6699C196.449 14.2858 196.579 13.9668 196.84 13.7129C197.107 13.459 197.465 13.332 197.914 13.332C198.363 13.332 198.718 13.459 198.979 13.7129C199.245 13.9668 199.379 14.2858 199.379 14.6699C199.379 15.0475 199.245 15.3633 198.979 15.6172C198.718 15.8711 198.363 15.998 197.914 15.998C197.465 15.998 197.107 15.8711 196.84 15.6172C196.579 15.3633 196.449 15.0475 196.449 14.6699ZM204.203 19.6895V28H201.625V17.4336H204.047L204.203 19.6895ZM203.793 22.3359H203.031C203.038 21.5677 203.142 20.8711 203.344 20.2461C203.546 19.6211 203.829 19.084 204.193 18.6348C204.564 18.1855 205.004 17.8405 205.512 17.5996C206.02 17.3587 206.586 17.2383 207.211 17.2383C207.719 17.2383 208.178 17.3099 208.588 17.4531C208.998 17.5964 209.35 17.8242 209.643 18.1367C209.942 18.4492 210.17 18.8594 210.326 19.3672C210.489 19.8685 210.57 20.487 210.57 21.2227V28H207.973V21.2031C207.973 20.7214 207.901 20.3405 207.758 20.0605C207.621 19.7806 207.419 19.582 207.152 19.4648C206.892 19.3477 206.57 19.2891 206.186 19.2891C205.788 19.2891 205.44 19.3704 205.141 19.5332C204.848 19.6895 204.6 19.9076 204.398 20.1875C204.203 20.4674 204.053 20.7897 203.949 21.1543C203.845 21.5189 203.793 21.9128 203.793 22.3359ZM215.424 12.9902V28H212.846V12.9902H215.424ZM222.045 17.4336L217.445 22.5996L214.955 25.1289L214.135 23.127L216.059 20.7051L218.93 17.4336H222.045ZM219.408 28L216.137 23.0781L217.855 21.4082L222.396 28H219.408Z" fill="#424242"/>
<path d="M26 29.9531H222.24V30.9297H26V29.9531Z" fill="#424242"/>
<g clip-path="url(#clip0_2_4)">
<path d="M129.48 41.2479C129.621 41.1072 129.811 41.0282 130.01 41.0282C130.209 41.0282 130.4 41.1072 130.541 41.2479L134.96 45.6673C135.054 45.761 135.181 45.8137 135.314 45.8137C135.446 45.8137 135.573 45.761 135.667 45.6673C135.761 45.5735 135.814 45.4463 135.814 45.3137C135.814 45.1811 135.761 45.0539 135.667 44.9602L133.876 43.1691L133.934 43.1054C134.15 42.8728 134.379 42.6493 134.53 42.5475C134.644 42.4719 134.806 42.4075 134.976 42.3594C135.06 42.3347 135.186 42.3573 135.304 42.4754L136.728 43.8995C136.822 43.9933 136.949 44.046 137.081 44.046C137.214 44.046 137.341 43.9933 137.435 43.8995C137.529 43.8057 137.581 43.6786 137.581 43.546C137.581 43.4133 137.529 43.2862 137.435 43.1924L136.328 42.0858L136.396 42.0038C136.603 41.7633 136.802 41.5837 136.925 41.5314C137.041 41.4805 137.284 41.4656 137.573 41.4918C137.698 41.5024 137.813 41.5201 137.897 41.5335L138.849 42.4853C138.943 42.5791 139.07 42.6317 139.203 42.6317C139.335 42.6317 139.463 42.5791 139.556 42.4853C139.65 42.3915 139.703 42.2643 139.703 42.1317C139.703 41.9991 139.65 41.872 139.556 41.7782L138.849 41.0711L139.091 40.8292C139.19 40.7304 139.308 40.6534 139.439 40.6032C139.569 40.5529 139.709 40.5306 139.848 40.5376C139.988 40.5446 140.124 40.5808 140.249 40.6438C140.374 40.7068 140.484 40.7953 140.572 40.9035L142.301 43.0149C142.523 43.2864 142.685 43.6015 142.777 43.9398L143.518 46.653C143.541 46.738 143.541 46.8276 143.518 46.9128C143.496 46.998 143.451 47.0757 143.389 47.1381L138.933 51.5942C138.867 51.6598 138.784 51.7059 138.694 51.7273C138.604 51.7486 138.509 51.7444 138.421 51.7152L135.807 50.8433L131.072 49.6603C130.95 49.6294 130.843 49.555 130.772 49.451C130.701 49.3471 130.67 49.2207 130.685 49.0956C130.701 48.9706 130.761 48.8555 130.856 48.772C130.95 48.6885 131.072 48.6423 131.198 48.6421L134.606 48.6421C134.705 48.6422 134.802 48.613 134.884 48.5581C134.966 48.5032 135.03 48.4251 135.068 48.3338C135.106 48.2424 135.116 48.1418 135.097 48.0448C135.078 47.9477 135.03 47.8586 134.96 47.7886L129.48 42.3085C129.339 42.1679 129.26 41.9771 129.26 41.7782C129.26 41.5793 129.339 41.3885 129.48 41.2479ZM133.168 42.4613L131.248 40.5407C130.92 40.2126 130.475 40.0282 130.01 40.0282C129.546 40.0282 129.101 40.2126 128.773 40.5407C128.445 40.8689 128.26 41.3141 128.26 41.7782C128.26 42.2423 128.445 42.6874 128.773 43.0156L133.4 47.6422L131.198 47.6422C130.828 47.6432 130.472 47.7791 130.195 48.0242C129.919 48.2693 129.741 48.6069 129.696 48.9736C129.651 49.3402 129.741 49.7108 129.95 50.0157C130.158 50.3207 130.471 50.539 130.829 50.6297L135.527 51.805L138.105 52.6641C138.369 52.7522 138.653 52.7649 138.924 52.7008C139.195 52.6367 139.443 52.4984 139.64 52.3013L144.096 47.8452C144.283 47.6581 144.417 47.4251 144.485 47.1695C144.553 46.9139 144.552 46.645 144.482 46.3899L143.742 43.6775C143.613 43.2033 143.385 42.7617 143.074 42.3813L141.346 40.2699C141.169 40.0537 140.949 39.8769 140.699 39.751C140.45 39.6251 140.177 39.5528 139.898 39.5389C139.619 39.525 139.34 39.5697 139.079 39.6701C138.818 39.7706 138.582 39.9246 138.384 40.1221L137.973 40.533C137.869 40.5173 137.765 40.5048 137.66 40.4955C137.363 40.4686 136.898 40.4545 136.531 40.6115C136.171 40.7656 135.84 41.1163 135.636 41.3539L135.551 41.4557C135.283 41.3383 134.983 41.3178 134.701 41.3978C134.445 41.4666 134.2 41.5739 133.976 41.716C133.713 41.8913 133.412 42.1975 133.201 42.4259L133.168 42.4613Z" fill="#424242"/>
</g>
<line x1="135.25" y1="82" x2="135.25" y2="114" stroke="#BDBDBD" stroke-width="0.5"/>
<defs>
<clipPath id="clip0_2_4">
<rect width="16" height="16" fill="white" transform="translate(124 45.3137) rotate(-45)"/>
</clipPath>
</defs>
</svg>
