<svg width="246" height="49" viewBox="0 0 246 49" fill="none" xmlns="http://www.w3.org/2000/svg">
<path d="M17.1934 13.1211L19.3174 6.0752H21.3901L18.2114 15.2012C18.1382 15.3965 18.043 15.6089 17.9258 15.8384C17.8135 16.0679 17.6621 16.2852 17.4717 16.4902C17.2812 16.7002 17.042 16.8711 16.7539 17.0029C16.4707 17.1348 16.1265 17.2007 15.7212 17.2007C15.5454 17.2007 15.3892 17.1885 15.2524 17.1641C15.1157 17.1396 14.9717 17.1079 14.8203 17.0688V15.6187C14.8691 15.6235 14.9253 15.626 14.9888 15.626C15.0571 15.6309 15.1157 15.6333 15.1646 15.6333C15.4478 15.6333 15.6821 15.5991 15.8677 15.5308C16.0532 15.4673 16.2021 15.3623 16.3145 15.2158C16.4316 15.0742 16.5293 14.8887 16.6074 14.6592L17.1934 13.1211ZM16.146 6.0752L17.9404 11.9126L18.2554 13.9561L16.9224 14.1978L14.0586 6.0752H16.146ZM21.8662 10.1182V9.96436C21.8662 9.3833 21.9492 8.84863 22.1152 8.36035C22.2812 7.86719 22.5229 7.43994 22.8403 7.07861C23.1577 6.71729 23.5459 6.43652 24.0049 6.23633C24.4639 6.03125 24.9863 5.92871 25.5723 5.92871C26.168 5.92871 26.6953 6.03125 27.1543 6.23633C27.6182 6.43652 28.0088 6.71729 28.3262 7.07861C28.6436 7.43994 28.8853 7.86719 29.0513 8.36035C29.2173 8.84863 29.3003 9.3833 29.3003 9.96436V10.1182C29.3003 10.6943 29.2173 11.229 29.0513 11.7222C28.8853 12.2104 28.6436 12.6377 28.3262 13.0039C28.0088 13.3652 27.6206 13.646 27.1616 13.8462C26.7026 14.0464 26.1777 14.1465 25.5869 14.1465C25.001 14.1465 24.4761 14.0464 24.0122 13.8462C23.5483 13.646 23.1577 13.3652 22.8403 13.0039C22.5229 12.6377 22.2812 12.2104 22.1152 11.7222C21.9492 11.229 21.8662 10.6943 21.8662 10.1182ZM23.7998 9.96436V10.1182C23.7998 10.4648 23.834 10.7896 23.9023 11.0923C23.9707 11.395 24.0757 11.6611 24.2173 11.8906C24.3589 12.1201 24.542 12.3008 24.7666 12.4326C24.9961 12.5596 25.2695 12.623 25.5869 12.623C25.8994 12.623 26.168 12.5596 26.3926 12.4326C26.6172 12.3008 26.8003 12.1201 26.9419 11.8906C27.0884 11.6611 27.1958 11.395 27.2642 11.0923C27.3325 10.7896 27.3667 10.4648 27.3667 10.1182V9.96436C27.3667 9.62256 27.3325 9.30273 27.2642 9.00488C27.1958 8.70215 27.0884 8.43604 26.9419 8.20654C26.8003 7.97217 26.6147 7.78906 26.3853 7.65723C26.1606 7.52051 25.8896 7.45215 25.5723 7.45215C25.2598 7.45215 24.9912 7.52051 24.7666 7.65723C24.542 7.78906 24.3589 7.97217 24.2173 8.20654C24.0757 8.43604 23.9707 8.70215 23.9023 9.00488C23.834 9.30273 23.7998 9.62256 23.7998 9.96436ZM35.4233 12.1177V6.0752H37.3716V14H35.5405L35.4233 12.1177ZM35.6724 10.4771L36.2729 10.4624C36.2729 10.9946 36.2144 11.4854 36.0972 11.9346C35.98 12.3838 35.7969 12.7744 35.5479 13.1064C35.3037 13.4336 34.9937 13.6899 34.6177 13.8755C34.2417 14.0562 33.7974 14.1465 33.2847 14.1465C32.894 14.1465 32.5376 14.0928 32.2153 13.9854C31.8931 13.873 31.6147 13.6997 31.3804 13.4653C31.1509 13.2261 30.9727 12.9209 30.8457 12.5498C30.7188 12.1738 30.6553 11.7222 30.6553 11.1948V6.0752H32.5889V11.2095C32.5889 11.4731 32.6182 11.6929 32.6768 11.8687C32.7402 12.0444 32.8257 12.1885 32.9331 12.3008C33.0454 12.4082 33.1748 12.4863 33.3213 12.5352C33.4727 12.5791 33.6338 12.6011 33.8047 12.6011C34.2734 12.6011 34.6421 12.5083 34.9106 12.3228C35.1841 12.1323 35.3794 11.8784 35.4966 11.561C35.6138 11.2388 35.6724 10.8774 35.6724 10.4771ZM42.8354 6.0752V7.4668H38.2944V6.0752H42.8354ZM39.5103 4.12695H41.4512V11.7148C41.4512 11.9492 41.4829 12.1299 41.5464 12.2568C41.6099 12.3838 41.7051 12.4692 41.832 12.5132C41.959 12.5571 42.1104 12.5791 42.2861 12.5791C42.4131 12.5791 42.5303 12.5718 42.6377 12.5571C42.7451 12.5425 42.8354 12.5278 42.9087 12.5132L42.916 13.9634C42.7549 14.0171 42.5718 14.061 42.3667 14.0952C42.1665 14.1294 41.9395 14.1465 41.6855 14.1465C41.251 14.1465 40.8701 14.0732 40.543 13.9268C40.2158 13.7754 39.9619 13.5337 39.7812 13.2017C39.6006 12.8647 39.5103 12.4204 39.5103 11.8687V4.12695ZM48.8413 12.1177V6.0752H50.7896V14H48.9585L48.8413 12.1177ZM49.0903 10.4771L49.6909 10.4624C49.6909 10.9946 49.6323 11.4854 49.5151 11.9346C49.3979 12.3838 49.2148 12.7744 48.9658 13.1064C48.7217 13.4336 48.4116 13.6899 48.0356 13.8755C47.6597 14.0562 47.2153 14.1465 46.7026 14.1465C46.312 14.1465 45.9556 14.0928 45.6333 13.9854C45.311 13.873 45.0327 13.6997 44.7983 13.4653C44.5688 13.2261 44.3906 12.9209 44.2637 12.5498C44.1367 12.1738 44.0732 11.7222 44.0732 11.1948V6.0752H46.0068V11.2095C46.0068 11.4731 46.0361 11.6929 46.0947 11.8687C46.1582 12.0444 46.2437 12.1885 46.3511 12.3008C46.4634 12.4082 46.5928 12.4863 46.7393 12.5352C46.8906 12.5791 47.0518 12.6011 47.2227 12.6011C47.6914 12.6011 48.0601 12.5083 48.3286 12.3228C48.6021 12.1323 48.7974 11.8784 48.9146 11.561C49.0317 11.2388 49.0903 10.8774 49.0903 10.4771ZM52.4961 2.75H54.437V12.2495L54.2466 14H52.4961V2.75ZM59.5347 9.95703V10.1108C59.5347 10.7017 59.4688 11.2437 59.3369 11.7368C59.21 12.23 59.0171 12.6572 58.7583 13.0186C58.4995 13.375 58.1772 13.6533 57.7915 13.8535C57.4106 14.0488 56.9639 14.1465 56.4512 14.1465C55.9629 14.1465 55.5381 14.0513 55.1768 13.8608C54.8203 13.6704 54.52 13.4019 54.2759 13.0552C54.0317 12.7036 53.8364 12.291 53.6899 11.8174C53.5435 11.3389 53.4336 10.8164 53.3604 10.25V9.83252C53.4336 9.26123 53.5435 8.73877 53.6899 8.26514C53.8364 7.7915 54.0317 7.37891 54.2759 7.02734C54.52 6.67578 54.8203 6.40479 55.1768 6.21436C55.5332 6.02393 55.9531 5.92871 56.4365 5.92871C56.9541 5.92871 57.4058 6.02881 57.7915 6.229C58.1821 6.42432 58.5044 6.70264 58.7583 7.06396C59.0171 7.42041 59.21 7.84521 59.3369 8.33838C59.4688 8.82666 59.5347 9.36621 59.5347 9.95703ZM57.5938 10.1108V9.95703C57.5938 9.62012 57.5669 9.30273 57.5132 9.00488C57.4595 8.70215 57.3716 8.43604 57.2495 8.20654C57.1274 7.97705 56.9614 7.79639 56.7515 7.66455C56.5415 7.53271 56.2778 7.4668 55.9604 7.4668C55.6577 7.4668 55.3989 7.51807 55.1841 7.62061C54.9741 7.72314 54.7983 7.86475 54.6567 8.04541C54.52 8.22607 54.4126 8.43848 54.3345 8.68262C54.2612 8.92676 54.2124 9.19043 54.188 9.47363V10.6162C54.2222 10.9922 54.3027 11.3315 54.4297 11.6343C54.5566 11.9321 54.7446 12.1689 54.9937 12.3447C55.2476 12.5205 55.5747 12.6084 55.9751 12.6084C56.2876 12.6084 56.5488 12.5474 56.7588 12.4253C56.9688 12.2983 57.1348 12.1226 57.2568 11.8979C57.3789 11.6685 57.4644 11.4023 57.5132 11.0996C57.5669 10.7969 57.5938 10.4673 57.5938 10.1108ZM64.5005 14.1465C63.8999 14.1465 63.3604 14.0488 62.8818 13.8535C62.4033 13.6582 61.9956 13.3872 61.6587 13.0405C61.3267 12.689 61.0703 12.2812 60.8896 11.8174C60.7139 11.3486 60.626 10.8457 60.626 10.3086V10.0156C60.626 9.40527 60.7139 8.85107 60.8896 8.35303C61.0654 7.8501 61.3145 7.41797 61.6367 7.05664C61.959 6.69531 62.3447 6.41699 62.7939 6.22168C63.2432 6.02637 63.7388 5.92871 64.2808 5.92871C64.8423 5.92871 65.3379 6.02393 65.7676 6.21436C66.1973 6.3999 66.5562 6.66357 66.8442 7.00537C67.1323 7.34717 67.3496 7.75732 67.4961 8.23584C67.6426 8.70947 67.7158 9.23438 67.7158 9.81055V10.6235H61.5049V9.29053H65.8115V9.14404C65.8018 8.83643 65.7432 8.55566 65.6357 8.30176C65.5283 8.04297 65.3623 7.83789 65.1377 7.68652C64.9131 7.53027 64.6226 7.45215 64.2661 7.45215C63.978 7.45215 63.7266 7.51562 63.5117 7.64258C63.3018 7.76465 63.126 7.94043 62.9844 8.16992C62.8477 8.39453 62.7451 8.66309 62.6768 8.97559C62.6084 9.28809 62.5742 9.63477 62.5742 10.0156V10.3086C62.5742 10.6406 62.6182 10.9482 62.7061 11.2314C62.7988 11.5146 62.9331 11.7612 63.1089 11.9712C63.2896 12.1763 63.5044 12.3374 63.7534 12.4546C64.0073 12.5669 64.2954 12.623 64.6177 12.623C65.0229 12.623 65.3892 12.5449 65.7163 12.3887C66.0483 12.2275 66.3364 11.9907 66.5806 11.6782L67.5547 12.689C67.3887 12.9331 67.1641 13.1675 66.8809 13.3921C66.6025 13.6167 66.2656 13.7998 65.8701 13.9414C65.4746 14.0781 65.0181 14.1465 64.5005 14.1465ZM69.0928 13.0552C69.0928 12.7622 69.1929 12.5156 69.3931 12.3154C69.5933 12.1152 69.8643 12.0151 70.2061 12.0151C70.5479 12.0151 70.8188 12.1152 71.019 12.3154C71.2192 12.5156 71.3193 12.7622 71.3193 13.0552C71.3193 13.3433 71.2192 13.5874 71.019 13.7876C70.8188 13.9829 70.5479 14.0806 70.2061 14.0806C69.8643 14.0806 69.5933 13.9829 69.3931 13.7876C69.1929 13.5874 69.0928 13.3433 69.0928 13.0552ZM76.5269 12.623C76.8003 12.623 77.0444 12.5693 77.2593 12.4619C77.4741 12.3545 77.645 12.2031 77.772 12.0078C77.9038 11.8125 77.9746 11.5854 77.9844 11.3267H79.8081C79.7983 11.8638 79.647 12.3447 79.354 12.7695C79.061 13.1943 78.6704 13.5312 78.1821 13.7803C77.6987 14.0244 77.1567 14.1465 76.5562 14.1465C75.9458 14.1465 75.4136 14.0439 74.9595 13.8389C74.5054 13.6338 74.127 13.3481 73.8242 12.9819C73.5264 12.6157 73.3018 12.1909 73.1504 11.7075C73.0039 11.2241 72.9307 10.7065 72.9307 10.1548V9.92041C72.9307 9.36865 73.0039 8.85107 73.1504 8.36768C73.3018 7.88428 73.5264 7.45947 73.8242 7.09326C74.127 6.72705 74.5054 6.44141 74.9595 6.23633C75.4136 6.03125 75.9434 5.92871 76.5488 5.92871C77.1885 5.92871 77.75 6.05322 78.2334 6.30225C78.7217 6.55127 79.1025 6.90283 79.376 7.35693C79.6543 7.81104 79.7983 8.3457 79.8081 8.96094H77.9844C77.9746 8.67773 77.9111 8.42383 77.7939 8.19922C77.6768 7.97461 77.5107 7.79395 77.2959 7.65723C77.0811 7.52051 76.8198 7.45215 76.5122 7.45215C76.1851 7.45215 75.9116 7.52051 75.6919 7.65723C75.4771 7.79395 75.3086 7.98193 75.1865 8.22119C75.0693 8.45557 74.9863 8.71924 74.9375 9.01221C74.8936 9.30029 74.8716 9.60303 74.8716 9.92041V10.1548C74.8716 10.4771 74.8936 10.7847 74.9375 11.0776C74.9863 11.3706 75.0693 11.6343 75.1865 11.8687C75.3086 12.0981 75.4771 12.2812 75.6919 12.418C75.9116 12.5547 76.1899 12.623 76.5269 12.623ZM80.7529 10.1182V9.96436C80.7529 9.3833 80.8359 8.84863 81.002 8.36035C81.168 7.86719 81.4097 7.43994 81.7271 7.07861C82.0444 6.71729 82.4326 6.43652 82.8916 6.23633C83.3506 6.03125 83.873 5.92871 84.459 5.92871C85.0547 5.92871 85.582 6.03125 86.041 6.23633C86.5049 6.43652 86.8955 6.71729 87.2129 7.07861C87.5303 7.43994 87.772 7.86719 87.938 8.36035C88.104 8.84863 88.187 9.3833 88.187 9.96436V10.1182C88.187 10.6943 88.104 11.229 87.938 11.7222C87.772 12.2104 87.5303 12.6377 87.2129 13.0039C86.8955 13.3652 86.5073 13.646 86.0483 13.8462C85.5894 14.0464 85.0645 14.1465 84.4736 14.1465C83.8877 14.1465 83.3628 14.0464 82.8989 13.8462C82.4351 13.646 82.0444 13.3652 81.7271 13.0039C81.4097 12.6377 81.168 12.2104 81.002 11.7222C80.8359 11.229 80.7529 10.6943 80.7529 10.1182ZM82.6865 9.96436V10.1182C82.6865 10.4648 82.7207 10.7896 82.7891 11.0923C82.8574 11.395 82.9624 11.6611 83.104 11.8906C83.2456 12.1201 83.4287 12.3008 83.6533 12.4326C83.8828 12.5596 84.1562 12.623 84.4736 12.623C84.7861 12.623 85.0547 12.5596 85.2793 12.4326C85.5039 12.3008 85.687 12.1201 85.8286 11.8906C85.9751 11.6611 86.0825 11.395 86.1509 11.0923C86.2192 10.7896 86.2534 10.4648 86.2534 10.1182V9.96436C86.2534 9.62256 86.2192 9.30273 86.1509 9.00488C86.0825 8.70215 85.9751 8.43604 85.8286 8.20654C85.687 7.97217 85.5015 7.78906 85.272 7.65723C85.0474 7.52051 84.7764 7.45215 84.459 7.45215C84.1465 7.45215 83.8779 7.52051 83.6533 7.65723C83.4287 7.78906 83.2456 7.97217 83.104 8.20654C82.9624 8.43604 82.8574 8.70215 82.7891 9.00488C82.7207 9.30273 82.6865 9.62256 82.6865 9.96436ZM91.5195 7.70117V14H89.5859V6.0752H91.4097L91.5195 7.70117ZM91.2339 9.75195H90.6406C90.6406 9.2002 90.7065 8.69238 90.8384 8.22852C90.9751 7.76465 91.1753 7.36182 91.439 7.02002C91.7026 6.67334 92.0273 6.40479 92.4131 6.21436C92.8037 6.02393 93.2554 5.92871 93.7681 5.92871C94.1245 5.92871 94.4517 5.98242 94.7495 6.08984C95.0474 6.19238 95.3037 6.35596 95.5186 6.58057C95.7383 6.80029 95.9067 7.08838 96.0239 7.44482C96.1411 7.79639 96.1997 8.21875 96.1997 8.71191V14H94.2661V8.90967C94.2661 8.53857 94.2124 8.24805 94.105 8.03809C94.0024 7.82812 93.8535 7.68164 93.6582 7.59863C93.4629 7.51074 93.2285 7.4668 92.9551 7.4668C92.6523 7.4668 92.3911 7.52783 92.1714 7.6499C91.9565 7.76709 91.7783 7.93066 91.6367 8.14062C91.5 8.35059 91.3975 8.59229 91.3291 8.86572C91.2656 9.13916 91.2339 9.43457 91.2339 9.75195ZM96.0532 9.39307L95.2549 9.53955C95.2598 9.0415 95.3281 8.5752 95.46 8.14062C95.5918 7.70117 95.7847 7.31787 96.0386 6.99072C96.2974 6.65869 96.6172 6.3999 96.998 6.21436C97.3838 6.02393 97.8281 5.92871 98.3311 5.92871C98.7217 5.92871 99.0732 5.98486 99.3857 6.09717C99.7031 6.20459 99.9741 6.37793 100.199 6.61719C100.423 6.85156 100.594 7.15674 100.711 7.53271C100.833 7.90869 100.895 8.36768 100.895 8.90967V14H98.9463V8.90234C98.9463 8.5166 98.8926 8.22119 98.7852 8.01611C98.6826 7.81104 98.5337 7.66943 98.3384 7.59131C98.1431 7.5083 97.9136 7.4668 97.6499 7.4668C97.3813 7.4668 97.147 7.51807 96.9468 7.62061C96.7515 7.71826 96.5854 7.85498 96.4487 8.03076C96.3169 8.20654 96.2168 8.41162 96.1484 8.646C96.085 8.87549 96.0532 9.12451 96.0532 9.39307ZM107.215 3.33594L103.187 14.9155H101.715L105.743 3.33594H107.215ZM110.548 12.0957L112.284 6.0752H113.514L113.148 8.15527L111.397 14H110.335L110.548 12.0957ZM109.588 6.0752L110.892 12.1104L111.009 14H109.786L107.706 6.0752H109.588ZM115.125 12.0225L116.4 6.0752H118.275L116.209 14H114.986L115.125 12.0225ZM113.705 6.0752L115.426 12.0371L115.653 14H114.591L112.826 8.15527L112.467 6.0752H113.705ZM123.783 12.3154V8.66064C123.783 8.39209 123.736 8.16016 123.644 7.96484C123.551 7.76953 123.409 7.61816 123.219 7.51074C123.028 7.40332 122.787 7.34961 122.494 7.34961C122.235 7.34961 122.008 7.39355 121.812 7.48145C121.622 7.56934 121.476 7.69385 121.373 7.85498C121.271 8.01123 121.219 8.19189 121.219 8.39697H119.278C119.278 8.06982 119.356 7.75977 119.513 7.4668C119.669 7.16895 119.891 6.90527 120.179 6.67578C120.472 6.44141 120.821 6.2583 121.227 6.12646C121.637 5.99463 122.096 5.92871 122.604 5.92871C123.204 5.92871 123.739 6.03125 124.208 6.23633C124.681 6.43652 125.052 6.73926 125.321 7.14453C125.594 7.5498 125.731 8.06006 125.731 8.67529V12.1323C125.731 12.5278 125.755 12.8672 125.804 13.1504C125.858 13.4287 125.936 13.6704 126.039 13.8755V14H124.068C123.976 13.7998 123.905 13.5459 123.856 13.2383C123.807 12.9258 123.783 12.6182 123.783 12.3154ZM124.054 9.17334L124.068 10.3232H122.845C122.542 10.3232 122.276 10.355 122.047 10.4185C121.817 10.4771 121.629 10.5649 121.483 10.6821C121.336 10.7944 121.227 10.9312 121.153 11.0923C121.08 11.2485 121.043 11.4268 121.043 11.627C121.043 11.8223 121.087 11.998 121.175 12.1543C121.268 12.3105 121.4 12.4351 121.571 12.5278C121.747 12.6157 121.952 12.6597 122.186 12.6597C122.528 12.6597 122.826 12.5913 123.08 12.4546C123.333 12.313 123.531 12.1421 123.673 11.9419C123.814 11.7417 123.89 11.5513 123.9 11.3706L124.457 12.2056C124.388 12.4058 124.286 12.6182 124.149 12.8428C124.012 13.0674 123.836 13.2773 123.622 13.4727C123.407 13.668 123.148 13.8291 122.845 13.9561C122.542 14.083 122.191 14.1465 121.791 14.1465C121.278 14.1465 120.819 14.0439 120.414 13.8389C120.008 13.6338 119.688 13.353 119.454 12.9966C119.22 12.6401 119.103 12.2349 119.103 11.7808C119.103 11.3608 119.181 10.9897 119.337 10.6675C119.493 10.3452 119.725 10.0742 120.033 9.85449C120.34 9.62988 120.721 9.46143 121.175 9.34912C121.634 9.23193 122.159 9.17334 122.75 9.17334H124.054ZM131.224 6.0752V7.4668H126.683V6.0752H131.224ZM127.899 4.12695H129.84V11.7148C129.84 11.9492 129.872 12.1299 129.935 12.2568C129.999 12.3838 130.094 12.4692 130.221 12.5132C130.348 12.5571 130.499 12.5791 130.675 12.5791C130.802 12.5791 130.919 12.5718 131.026 12.5571C131.134 12.5425 131.224 12.5278 131.297 12.5132L131.305 13.9634C131.144 14.0171 130.96 14.061 130.755 14.0952C130.555 14.1294 130.328 14.1465 130.074 14.1465C129.64 14.1465 129.259 14.0732 128.932 13.9268C128.604 13.7754 128.351 13.5337 128.17 13.2017C127.989 12.8647 127.899 12.4204 127.899 11.8687V4.12695ZM135.765 12.623C136.039 12.623 136.283 12.5693 136.498 12.4619C136.712 12.3545 136.883 12.2031 137.01 12.0078C137.142 11.8125 137.213 11.5854 137.223 11.3267H139.046C139.037 11.8638 138.885 12.3447 138.592 12.7695C138.299 13.1943 137.909 13.5312 137.42 13.7803C136.937 14.0244 136.395 14.1465 135.794 14.1465C135.184 14.1465 134.652 14.0439 134.198 13.8389C133.744 13.6338 133.365 13.3481 133.062 12.9819C132.765 12.6157 132.54 12.1909 132.389 11.7075C132.242 11.2241 132.169 10.7065 132.169 10.1548V9.92041C132.169 9.36865 132.242 8.85107 132.389 8.36768C132.54 7.88428 132.765 7.45947 133.062 7.09326C133.365 6.72705 133.744 6.44141 134.198 6.23633C134.652 6.03125 135.182 5.92871 135.787 5.92871C136.427 5.92871 136.988 6.05322 137.472 6.30225C137.96 6.55127 138.341 6.90283 138.614 7.35693C138.893 7.81104 139.037 8.3457 139.046 8.96094H137.223C137.213 8.67773 137.149 8.42383 137.032 8.19922C136.915 7.97461 136.749 7.79395 136.534 7.65723C136.319 7.52051 136.058 7.45215 135.75 7.45215C135.423 7.45215 135.15 7.52051 134.93 7.65723C134.715 7.79395 134.547 7.98193 134.425 8.22119C134.308 8.45557 134.225 8.71924 134.176 9.01221C134.132 9.30029 134.11 9.60303 134.11 9.92041V10.1548C134.11 10.4771 134.132 10.7847 134.176 11.0776C134.225 11.3706 134.308 11.6343 134.425 11.8687C134.547 12.0981 134.715 12.2812 134.93 12.418C135.15 12.5547 135.428 12.623 135.765 12.623ZM142.232 2.75V14H140.292V2.75H142.232ZM141.925 9.75195H141.354C141.354 9.2002 141.427 8.69238 141.573 8.22852C141.72 7.76465 141.927 7.36182 142.196 7.02002C142.464 6.67334 142.784 6.40479 143.155 6.21436C143.531 6.02393 143.946 5.92871 144.4 5.92871C144.791 5.92871 145.145 5.98486 145.462 6.09717C145.785 6.20459 146.061 6.37793 146.29 6.61719C146.52 6.85645 146.695 7.16895 146.817 7.55469C146.944 7.93555 147.008 8.39941 147.008 8.94629V14H145.06V8.93164C145.06 8.56543 145.006 8.27734 144.898 8.06738C144.791 7.85254 144.637 7.69873 144.437 7.60596C144.242 7.51318 144 7.4668 143.712 7.4668C143.399 7.4668 143.131 7.52783 142.906 7.6499C142.682 7.76709 142.496 7.93066 142.35 8.14062C142.208 8.35059 142.101 8.59229 142.027 8.86572C141.959 9.13916 141.925 9.43457 141.925 9.75195ZM152.157 10.7993H150.406C150.411 10.355 150.448 9.97412 150.516 9.65674C150.589 9.33936 150.709 9.05371 150.875 8.7998C151.041 8.54102 151.266 8.27734 151.549 8.00879C151.773 7.79883 151.974 7.60107 152.149 7.41553C152.33 7.2251 152.472 7.02734 152.574 6.82227C152.677 6.6123 152.728 6.37549 152.728 6.11182C152.728 5.81396 152.679 5.56494 152.582 5.36475C152.489 5.16455 152.35 5.01318 152.164 4.91064C151.983 4.80322 151.756 4.74951 151.483 4.74951C151.258 4.74951 151.046 4.7959 150.846 4.88867C150.646 4.98145 150.484 5.12549 150.362 5.3208C150.24 5.51123 150.174 5.76025 150.165 6.06787H148.224C148.238 5.42822 148.39 4.896 148.678 4.47119C148.966 4.0415 149.354 3.72168 149.842 3.51172C150.331 3.29688 150.877 3.18945 151.483 3.18945C152.152 3.18945 152.723 3.30176 153.197 3.52637C153.675 3.74609 154.039 4.06836 154.288 4.49316C154.542 4.91797 154.669 5.43066 154.669 6.03125C154.669 6.46094 154.586 6.84668 154.42 7.18848C154.254 7.52539 154.034 7.84033 153.761 8.1333C153.487 8.42627 153.192 8.72168 152.875 9.01953C152.596 9.26855 152.408 9.53467 152.311 9.81787C152.213 10.1011 152.162 10.4282 152.157 10.7993ZM150.223 13.0771C150.223 12.7842 150.321 12.54 150.516 12.3447C150.716 12.1494 150.985 12.0518 151.322 12.0518C151.659 12.0518 151.925 12.1494 152.12 12.3447C152.32 12.54 152.42 12.7842 152.42 13.0771C152.42 13.3604 152.32 13.5996 152.12 13.7949C151.925 13.9902 151.659 14.0879 151.322 14.0879C150.985 14.0879 150.716 13.9902 150.516 13.7949C150.321 13.5996 150.223 13.3604 150.223 13.0771ZM158.727 12.5352L160.572 6.0752H162.594L159.876 14H158.646L158.727 12.5352ZM157.379 6.0752L159.247 12.5498L159.312 14H158.075L155.35 6.0752H157.379ZM170.226 6.82959V8.38965H163.758V6.82959H170.226ZM170.226 9.96436V11.5244H163.758V9.96436H170.226Z" fill="#DC2626"/>
<rect x="176" y="5" width="70" height="8" rx="4" fill="#B5B5B5"/>
<path d="M2.34125 7.78375C2.31219 7.75469 2.28915 7.7202 2.27342 7.68224C2.2577 7.64428 2.2496 7.60359 2.2496 7.5625C2.2496 7.52141 2.2577 7.48072 2.27342 7.44276C2.28915 7.4048 2.31219 7.3703 2.34125 7.34125C2.3703 7.31219 2.4048 7.28915 2.44276 7.27342C2.48072 7.2577 2.52141 7.2496 2.5625 7.2496C2.60359 7.2496 2.64428 7.2577 2.68224 7.27342C2.7202 7.28915 2.75469 7.31219 2.78375 7.34125L6 10.5581L9.21625 7.34125C9.2453 7.31219 9.2798 7.28915 9.31776 7.27342C9.35572 7.2577 9.39641 7.2496 9.4375 7.2496C9.47859 7.2496 9.51928 7.2577 9.55724 7.27342C9.5952 7.28915 9.62969 7.31219 9.65875 7.34125C9.6878 7.3703 9.71085 7.4048 9.72658 7.44276C9.7423 7.48072 9.75039 7.52141 9.75039 7.5625C9.75039 7.60359 9.7423 7.64428 9.72658 7.68224C9.71085 7.7202 9.6878 7.75469 9.65875 7.78375L6.44187 11L9.65875 14.2162C9.6878 14.2453 9.71085 14.2798 9.72658 14.3178C9.7423 14.3557 9.75039 14.3964 9.75039 14.4375C9.75039 14.4786 9.7423 14.5193 9.72658 14.5572C9.71085 14.5952 9.6878 14.6297 9.65875 14.6587C9.62969 14.6878 9.5952 14.7109 9.55724 14.7266C9.51928 14.7423 9.47859 14.7504 9.4375 14.7504C9.39641 14.7504 9.35572 14.7423 9.31776 14.7266C9.2798 14.7109 9.2453 14.6878 9.21625 14.6587L6 11.4419L2.78375 14.6587C2.75469 14.6878 2.7202 14.7109 2.68224 14.7266C2.64428 14.7423 2.60359 14.7504 2.5625 14.7504C2.52141 14.7504 2.48072 14.7423 2.44276 14.7266C2.4048 14.7109 2.3703 14.6878 2.34125 14.6587C2.31219 14.6297 2.28915 14.5952 2.27342 14.5572C2.2577 14.5193 2.2496 14.4786 2.2496 14.4375C2.2496 14.3964 2.2577 14.3557 2.27342 14.3178C2.28915 14.2798 2.31219 14.2453 2.34125 14.2162L5.55812 11L2.34125 7.78375Z" fill="#DC2626"/>
<path d="M17.1934 44.1211L19.3174 37.0752H21.3901L18.2114 46.2012C18.1382 46.3965 18.043 46.6089 17.9258 46.8384C17.8135 47.0679 17.6621 47.2852 17.4717 47.4902C17.2812 47.7002 17.042 47.8711 16.7539 48.0029C16.4707 48.1348 16.1265 48.2007 15.7212 48.2007C15.5454 48.2007 15.3892 48.1885 15.2524 48.1641C15.1157 48.1396 14.9717 48.1079 14.8203 48.0688V46.6187C14.8691 46.6235 14.9253 46.626 14.9888 46.626C15.0571 46.6309 15.1157 46.6333 15.1646 46.6333C15.4478 46.6333 15.6821 46.5991 15.8677 46.5308C16.0532 46.4673 16.2021 46.3623 16.3145 46.2158C16.4316 46.0742 16.5293 45.8887 16.6074 45.6592L17.1934 44.1211ZM16.146 37.0752L17.9404 42.9126L18.2554 44.9561L16.9224 45.1978L14.0586 37.0752H16.146ZM21.8662 41.1182V40.9644C21.8662 40.3833 21.9492 39.8486 22.1152 39.3604C22.2812 38.8672 22.5229 38.4399 22.8403 38.0786C23.1577 37.7173 23.5459 37.4365 24.0049 37.2363C24.4639 37.0312 24.9863 36.9287 25.5723 36.9287C26.168 36.9287 26.6953 37.0312 27.1543 37.2363C27.6182 37.4365 28.0088 37.7173 28.3262 38.0786C28.6436 38.4399 28.8853 38.8672 29.0513 39.3604C29.2173 39.8486 29.3003 40.3833 29.3003 40.9644V41.1182C29.3003 41.6943 29.2173 42.229 29.0513 42.7222C28.8853 43.2104 28.6436 43.6377 28.3262 44.0039C28.0088 44.3652 27.6206 44.646 27.1616 44.8462C26.7026 45.0464 26.1777 45.1465 25.5869 45.1465C25.001 45.1465 24.4761 45.0464 24.0122 44.8462C23.5483 44.646 23.1577 44.3652 22.8403 44.0039C22.5229 43.6377 22.2812 43.2104 22.1152 42.7222C21.9492 42.229 21.8662 41.6943 21.8662 41.1182ZM23.7998 40.9644V41.1182C23.7998 41.4648 23.834 41.7896 23.9023 42.0923C23.9707 42.395 24.0757 42.6611 24.2173 42.8906C24.3589 43.1201 24.542 43.3008 24.7666 43.4326C24.9961 43.5596 25.2695 43.623 25.5869 43.623C25.8994 43.623 26.168 43.5596 26.3926 43.4326C26.6172 43.3008 26.8003 43.1201 26.9419 42.8906C27.0884 42.6611 27.1958 42.395 27.2642 42.0923C27.3325 41.7896 27.3667 41.4648 27.3667 41.1182V40.9644C27.3667 40.6226 27.3325 40.3027 27.2642 40.0049C27.1958 39.7021 27.0884 39.436 26.9419 39.2065C26.8003 38.9722 26.6147 38.7891 26.3853 38.6572C26.1606 38.5205 25.8896 38.4521 25.5723 38.4521C25.2598 38.4521 24.9912 38.5205 24.7666 38.6572C24.542 38.7891 24.3589 38.9722 24.2173 39.2065C24.0757 39.436 23.9707 39.7021 23.9023 40.0049C23.834 40.3027 23.7998 40.6226 23.7998 40.9644ZM35.4233 43.1177V37.0752H37.3716V45H35.5405L35.4233 43.1177ZM35.6724 41.4771L36.2729 41.4624C36.2729 41.9946 36.2144 42.4854 36.0972 42.9346C35.98 43.3838 35.7969 43.7744 35.5479 44.1064C35.3037 44.4336 34.9937 44.6899 34.6177 44.8755C34.2417 45.0562 33.7974 45.1465 33.2847 45.1465C32.894 45.1465 32.5376 45.0928 32.2153 44.9854C31.8931 44.873 31.6147 44.6997 31.3804 44.4653C31.1509 44.2261 30.9727 43.9209 30.8457 43.5498C30.7188 43.1738 30.6553 42.7222 30.6553 42.1948V37.0752H32.5889V42.2095C32.5889 42.4731 32.6182 42.6929 32.6768 42.8687C32.7402 43.0444 32.8257 43.1885 32.9331 43.3008C33.0454 43.4082 33.1748 43.4863 33.3213 43.5352C33.4727 43.5791 33.6338 43.6011 33.8047 43.6011C34.2734 43.6011 34.6421 43.5083 34.9106 43.3228C35.1841 43.1323 35.3794 42.8784 35.4966 42.561C35.6138 42.2388 35.6724 41.8774 35.6724 41.4771ZM42.8354 37.0752V38.4668H38.2944V37.0752H42.8354ZM39.5103 35.127H41.4512V42.7148C41.4512 42.9492 41.4829 43.1299 41.5464 43.2568C41.6099 43.3838 41.7051 43.4692 41.832 43.5132C41.959 43.5571 42.1104 43.5791 42.2861 43.5791C42.4131 43.5791 42.5303 43.5718 42.6377 43.5571C42.7451 43.5425 42.8354 43.5278 42.9087 43.5132L42.916 44.9634C42.7549 45.0171 42.5718 45.061 42.3667 45.0952C42.1665 45.1294 41.9395 45.1465 41.6855 45.1465C41.251 45.1465 40.8701 45.0732 40.543 44.9268C40.2158 44.7754 39.9619 44.5337 39.7812 44.2017C39.6006 43.8647 39.5103 43.4204 39.5103 42.8687V35.127ZM48.8413 43.1177V37.0752H50.7896V45H48.9585L48.8413 43.1177ZM49.0903 41.4771L49.6909 41.4624C49.6909 41.9946 49.6323 42.4854 49.5151 42.9346C49.3979 43.3838 49.2148 43.7744 48.9658 44.1064C48.7217 44.4336 48.4116 44.6899 48.0356 44.8755C47.6597 45.0562 47.2153 45.1465 46.7026 45.1465C46.312 45.1465 45.9556 45.0928 45.6333 44.9854C45.311 44.873 45.0327 44.6997 44.7983 44.4653C44.5688 44.2261 44.3906 43.9209 44.2637 43.5498C44.1367 43.1738 44.0732 42.7222 44.0732 42.1948V37.0752H46.0068V42.2095C46.0068 42.4731 46.0361 42.6929 46.0947 42.8687C46.1582 43.0444 46.2437 43.1885 46.3511 43.3008C46.4634 43.4082 46.5928 43.4863 46.7393 43.5352C46.8906 43.5791 47.0518 43.6011 47.2227 43.6011C47.6914 43.6011 48.0601 43.5083 48.3286 43.3228C48.6021 43.1323 48.7974 42.8784 48.9146 42.561C49.0317 42.2388 49.0903 41.8774 49.0903 41.4771ZM52.584 44.0552C52.584 43.7622 52.6841 43.5156 52.8843 43.3154C53.0845 43.1152 53.3555 43.0151 53.6973 43.0151C54.0391 43.0151 54.3101 43.1152 54.5103 43.3154C54.7104 43.5156 54.8105 43.7622 54.8105 44.0552C54.8105 44.3433 54.7104 44.5874 54.5103 44.7876C54.3101 44.9829 54.0391 45.0806 53.6973 45.0806C53.3555 45.0806 53.0845 44.9829 52.8843 44.7876C52.6841 44.5874 52.584 44.3433 52.584 44.0552ZM56.7588 33.75H58.6997V43.2495L58.5093 45H56.7588V33.75ZM63.7974 40.957V41.1108C63.7974 41.7017 63.7314 42.2437 63.5996 42.7368C63.4727 43.23 63.2798 43.6572 63.021 44.0186C62.7622 44.375 62.4399 44.6533 62.0542 44.8535C61.6733 45.0488 61.2266 45.1465 60.7139 45.1465C60.2256 45.1465 59.8008 45.0513 59.4395 44.8608C59.083 44.6704 58.7827 44.4019 58.5386 44.0552C58.2944 43.7036 58.0991 43.291 57.9526 42.8174C57.8062 42.3389 57.6963 41.8164 57.623 41.25V40.8325C57.6963 40.2612 57.8062 39.7388 57.9526 39.2651C58.0991 38.7915 58.2944 38.3789 58.5386 38.0273C58.7827 37.6758 59.083 37.4048 59.4395 37.2144C59.7959 37.0239 60.2158 36.9287 60.6992 36.9287C61.2168 36.9287 61.6685 37.0288 62.0542 37.229C62.4448 37.4243 62.7671 37.7026 63.021 38.064C63.2798 38.4204 63.4727 38.8452 63.5996 39.3384C63.7314 39.8267 63.7974 40.3662 63.7974 40.957ZM61.8564 41.1108V40.957C61.8564 40.6201 61.8296 40.3027 61.7759 40.0049C61.7222 39.7021 61.6343 39.436 61.5122 39.2065C61.3901 38.9771 61.2241 38.7964 61.0142 38.6646C60.8042 38.5327 60.5405 38.4668 60.2231 38.4668C59.9204 38.4668 59.6616 38.5181 59.4468 38.6206C59.2368 38.7231 59.061 38.8647 58.9194 39.0454C58.7827 39.2261 58.6753 39.4385 58.5972 39.6826C58.5239 39.9268 58.4751 40.1904 58.4507 40.4736V41.6162C58.4849 41.9922 58.5654 42.3315 58.6924 42.6343C58.8193 42.9321 59.0073 43.1689 59.2563 43.3447C59.5103 43.5205 59.8374 43.6084 60.2378 43.6084C60.5503 43.6084 60.8115 43.5474 61.0215 43.4253C61.2314 43.2983 61.3975 43.1226 61.5195 42.8979C61.6416 42.6685 61.7271 42.4023 61.7759 42.0996C61.8296 41.7969 61.8564 41.4673 61.8564 41.1108ZM68.7632 45.1465C68.1626 45.1465 67.623 45.0488 67.1445 44.8535C66.666 44.6582 66.2583 44.3872 65.9214 44.0405C65.5894 43.689 65.333 43.2812 65.1523 42.8174C64.9766 42.3486 64.8887 41.8457 64.8887 41.3086V41.0156C64.8887 40.4053 64.9766 39.8511 65.1523 39.353C65.3281 38.8501 65.5771 38.418 65.8994 38.0566C66.2217 37.6953 66.6074 37.417 67.0566 37.2217C67.5059 37.0264 68.0015 36.9287 68.5435 36.9287C69.105 36.9287 69.6006 37.0239 70.0303 37.2144C70.46 37.3999 70.8188 37.6636 71.1069 38.0054C71.395 38.3472 71.6123 38.7573 71.7588 39.2358C71.9053 39.7095 71.9785 40.2344 71.9785 40.8105V41.6235H65.7676V40.2905H70.0742V40.144C70.0645 39.8364 70.0059 39.5557 69.8984 39.3018C69.791 39.043 69.625 38.8379 69.4004 38.6865C69.1758 38.5303 68.8853 38.4521 68.5288 38.4521C68.2407 38.4521 67.9893 38.5156 67.7744 38.6426C67.5645 38.7646 67.3887 38.9404 67.2471 39.1699C67.1104 39.3945 67.0078 39.6631 66.9395 39.9756C66.8711 40.2881 66.8369 40.6348 66.8369 41.0156V41.3086C66.8369 41.6406 66.8809 41.9482 66.9688 42.2314C67.0615 42.5146 67.1958 42.7612 67.3716 42.9712C67.5522 43.1763 67.7671 43.3374 68.0161 43.4546C68.27 43.5669 68.5581 43.623 68.8804 43.623C69.2856 43.623 69.6519 43.5449 69.979 43.3887C70.311 43.2275 70.5991 42.9907 70.8433 42.6782L71.8174 43.689C71.6514 43.9331 71.4268 44.1675 71.1436 44.3921C70.8652 44.6167 70.5283 44.7998 70.1328 44.9414C69.7373 45.0781 69.2808 45.1465 68.7632 45.1465ZM77.8599 34.3359L73.8315 45.9155H72.3594L76.3877 34.3359H77.8599Z" fill="#4ADE80"/>
<rect x="79" y="36" width="70" height="8" rx="4" fill="#B5B5B5"/>
<path d="M9.552 39.9775C9.60318 39.9253 9.66427 39.8838 9.73169 39.8555C9.79911 39.8271 9.8715 39.8125 9.94462 39.8125C10.0178 39.8125 10.0901 39.8271 10.1576 39.8555C10.225 39.8838 10.2861 39.9253 10.3373 39.9775C10.5518 40.1942 10.5548 40.5445 10.3448 40.765L5.91 46.0075C5.85965 46.0628 5.79855 46.1072 5.73043 46.1381C5.66232 46.169 5.58862 46.1856 5.51386 46.187C5.43909 46.1884 5.36482 46.1745 5.29559 46.1463C5.22637 46.118 5.16364 46.0759 5.11125 46.0225L2.41275 43.288C2.30868 43.1819 2.25038 43.0391 2.25038 42.8905C2.25038 42.7419 2.30868 42.5991 2.41275 42.493C2.46393 42.4408 2.52502 42.3993 2.59244 42.371C2.65986 42.3426 2.73225 42.328 2.80538 42.328C2.8785 42.328 2.95089 42.3426 3.01831 42.371C3.08573 42.3993 3.14682 42.4408 3.198 42.493L5.487 44.8127L9.537 39.994C9.54166 39.9882 9.54667 39.9827 9.552 39.9775Z" fill="#4ADE80"/>
</svg>
