<svg width="579" height="94" viewBox="0 0 579 94" fill="none" xmlns="http://www.w3.org/2000/svg">
<path d="M104.836 44.3906V54.5859H81.3594V44.3906H104.836ZM137.297 62.125C137.297 61.3958 137.049 60.7708 136.555 60.25C136.086 59.7031 135.253 59.2083 134.055 58.7656C132.857 58.2969 131.177 57.8281 129.016 57.3594C126.958 56.9167 125.018 56.3307 123.195 55.6016C121.398 54.8724 119.823 53.987 118.469 52.9453C117.115 51.9036 116.047 50.6667 115.266 49.2344C114.51 47.8021 114.133 46.1615 114.133 44.3125C114.133 42.5156 114.51 40.8229 115.266 39.2344C116.047 37.6198 117.18 36.2005 118.664 34.9766C120.174 33.7266 122.01 32.75 124.172 32.0469C126.333 31.3177 128.794 30.9531 131.555 30.9531C135.357 30.9531 138.638 31.5391 141.398 32.7109C144.159 33.8568 146.281 35.4714 147.766 37.5547C149.276 39.612 150.031 41.9948 150.031 44.7031H136.867C136.867 43.6354 136.685 42.724 136.32 41.9688C135.982 41.2135 135.422 40.6406 134.641 40.25C133.859 39.8333 132.818 39.625 131.516 39.625C130.604 39.625 129.771 39.7943 129.016 40.1328C128.286 40.4714 127.701 40.9401 127.258 41.5391C126.815 42.138 126.594 42.8411 126.594 43.6484C126.594 44.2214 126.724 44.7422 126.984 45.2109C127.271 45.6536 127.701 46.0703 128.273 46.4609C128.846 46.8255 129.576 47.1641 130.461 47.4766C131.346 47.763 132.414 48.0234 133.664 48.2578C136.503 48.7786 139.159 49.5208 141.633 50.4844C144.107 51.4479 146.112 52.8151 147.648 54.5859C149.211 56.3568 149.992 58.7396 149.992 61.7344C149.992 63.6094 149.562 65.3411 148.703 66.9297C147.844 68.4922 146.607 69.8724 144.992 71.0703C143.378 72.2422 141.438 73.1536 139.172 73.8047C136.906 74.4557 134.354 74.7812 131.516 74.7812C127.479 74.7812 124.068 74.0651 121.281 72.6328C118.495 71.1745 116.385 69.3516 114.953 67.1641C113.547 64.9505 112.844 62.7109 112.844 60.4453H125.109C125.161 61.7474 125.474 62.8151 126.047 63.6484C126.646 64.4818 127.44 65.0938 128.43 65.4844C129.419 65.875 130.565 66.0703 131.867 66.0703C133.065 66.0703 134.055 65.901 134.836 65.5625C135.643 65.224 136.255 64.7682 136.672 64.1953C137.089 63.5964 137.297 62.9062 137.297 62.125ZM180.852 63.7266V31.7344H194.055V74H181.711L180.852 63.7266ZM182.102 55.1328L185.539 55.0547C185.539 57.8932 185.201 60.5234 184.523 62.9453C183.846 65.3411 182.844 67.4245 181.516 69.1953C180.214 70.9661 178.599 72.3464 176.672 73.3359C174.771 74.2995 172.57 74.7812 170.07 74.7812C167.987 74.7812 166.073 74.4948 164.328 73.9219C162.609 73.3229 161.125 72.3984 159.875 71.1484C158.625 69.8724 157.648 68.2448 156.945 66.2656C156.268 64.2604 155.93 61.8646 155.93 59.0781V31.7344H169.094V59.1562C169.094 60.0938 169.211 60.901 169.445 61.5781C169.68 62.2552 170.018 62.8281 170.461 63.2969C170.904 63.7396 171.451 64.0781 172.102 64.3125C172.779 64.5208 173.547 64.625 174.406 64.625C176.385 64.625 177.935 64.2083 179.055 63.375C180.174 62.5417 180.956 61.4089 181.398 59.9766C181.867 58.5443 182.102 56.9297 182.102 55.1328ZM201.438 14H214.602V63.6094L213.234 74H201.438V14ZM240.539 52.3984V53.2188C240.539 56.4219 240.214 59.3385 239.562 61.9688C238.911 64.599 237.909 66.8776 236.555 68.8047C235.201 70.7057 233.495 72.1771 231.438 73.2188C229.38 74.2604 226.945 74.7812 224.133 74.7812C221.581 74.7812 219.393 74.2344 217.57 73.1406C215.747 72.0208 214.224 70.4844 213 68.5312C211.776 66.5521 210.786 64.2734 210.031 61.6953C209.276 59.0911 208.677 56.3047 208.234 53.3359V52.3594C208.677 49.4167 209.276 46.6562 210.031 44.0781C210.786 41.474 211.776 39.1953 213 37.2422C214.224 35.263 215.734 33.7266 217.531 32.6328C219.354 31.513 221.529 30.9531 224.055 30.9531C226.893 30.9531 229.341 31.487 231.398 32.5547C233.482 33.6224 235.201 35.1198 236.555 37.0469C237.909 38.974 238.911 41.2396 239.562 43.8438C240.214 46.4479 240.539 49.2995 240.539 52.3984ZM227.375 53.2188V52.3984C227.375 50.862 227.284 49.4167 227.102 48.0625C226.919 46.7083 226.594 45.5104 226.125 44.4688C225.656 43.4271 224.992 42.6068 224.133 42.0078C223.273 41.4089 222.154 41.1094 220.773 41.1094C219.367 41.1094 218.182 41.3438 217.219 41.8125C216.281 42.2812 215.526 42.9583 214.953 43.8438C214.406 44.7031 214.016 45.7708 213.781 47.0469C213.547 48.2969 213.443 49.7161 213.469 51.3047V54.3906C213.417 56.5521 213.612 58.401 214.055 59.9375C214.497 61.474 215.266 62.6458 216.359 63.4531C217.453 64.2604 218.951 64.6641 220.852 64.6641C222.258 64.6641 223.391 64.3906 224.25 63.8438C225.135 63.2969 225.799 62.5156 226.242 61.5C226.685 60.4844 226.984 59.2734 227.141 57.8672C227.297 56.4609 227.375 54.9115 227.375 53.2188ZM268.547 62.125C268.547 61.3958 268.299 60.7708 267.805 60.25C267.336 59.7031 266.503 59.2083 265.305 58.7656C264.107 58.2969 262.427 57.8281 260.266 57.3594C258.208 56.9167 256.268 56.3307 254.445 55.6016C252.648 54.8724 251.073 53.987 249.719 52.9453C248.365 51.9036 247.297 50.6667 246.516 49.2344C245.76 47.8021 245.383 46.1615 245.383 44.3125C245.383 42.5156 245.76 40.8229 246.516 39.2344C247.297 37.6198 248.43 36.2005 249.914 34.9766C251.424 33.7266 253.26 32.75 255.422 32.0469C257.583 31.3177 260.044 30.9531 262.805 30.9531C266.607 30.9531 269.888 31.5391 272.648 32.7109C275.409 33.8568 277.531 35.4714 279.016 37.5547C280.526 39.612 281.281 41.9948 281.281 44.7031H268.117C268.117 43.6354 267.935 42.724 267.57 41.9688C267.232 41.2135 266.672 40.6406 265.891 40.25C265.109 39.8333 264.068 39.625 262.766 39.625C261.854 39.625 261.021 39.7943 260.266 40.1328C259.536 40.4714 258.951 40.9401 258.508 41.5391C258.065 42.138 257.844 42.8411 257.844 43.6484C257.844 44.2214 257.974 44.7422 258.234 45.2109C258.521 45.6536 258.951 46.0703 259.523 46.4609C260.096 46.8255 260.826 47.1641 261.711 47.4766C262.596 47.763 263.664 48.0234 264.914 48.2578C267.753 48.7786 270.409 49.5208 272.883 50.4844C275.357 51.4479 277.362 52.8151 278.898 54.5859C280.461 56.3568 281.242 58.7396 281.242 61.7344C281.242 63.6094 280.812 65.3411 279.953 66.9297C279.094 68.4922 277.857 69.8724 276.242 71.0703C274.628 72.2422 272.688 73.1536 270.422 73.8047C268.156 74.4557 265.604 74.7812 262.766 74.7812C258.729 74.7812 255.318 74.0651 252.531 72.6328C249.745 71.1745 247.635 69.3516 246.203 67.1641C244.797 64.9505 244.094 62.7109 244.094 60.4453H256.359C256.411 61.7474 256.724 62.8151 257.297 63.6484C257.896 64.4818 258.69 65.0938 259.68 65.4844C260.669 65.875 261.815 66.0703 263.117 66.0703C264.315 66.0703 265.305 65.901 266.086 65.5625C266.893 65.224 267.505 64.7682 267.922 64.1953C268.339 63.5964 268.547 62.9062 268.547 62.125ZM305.266 64.625C306.49 64.625 307.531 64.4036 308.391 63.9609C309.276 63.4922 309.94 62.8411 310.383 62.0078C310.852 61.1484 311.073 60.1198 311.047 58.9219H323.43C323.456 62.099 322.674 64.8854 321.086 67.2812C319.523 69.651 317.388 71.5 314.68 72.8281C311.997 74.1302 308.964 74.7812 305.578 74.7812C302.271 74.7812 299.38 74.2474 296.906 73.1797C294.432 72.0859 292.362 70.5755 290.695 68.6484C289.055 66.6953 287.818 64.4167 286.984 61.8125C286.177 59.2083 285.773 56.3828 285.773 53.3359V52.4375C285.773 49.3906 286.177 46.5651 286.984 43.9609C287.818 41.3307 289.055 39.0521 290.695 37.125C292.362 35.1719 294.419 33.6615 296.867 32.5938C299.341 31.5 302.219 30.9531 305.5 30.9531C309.016 30.9531 312.115 31.6172 314.797 32.9453C317.505 34.2734 319.628 36.2005 321.164 38.7266C322.701 41.2526 323.456 44.3125 323.43 47.9062H311.047C311.073 46.6302 310.878 45.4844 310.461 44.4688C310.044 43.4531 309.393 42.6458 308.508 42.0469C307.648 41.4219 306.542 41.1094 305.188 41.1094C303.833 41.1094 302.74 41.4089 301.906 42.0078C301.073 42.6068 300.435 43.4401 299.992 44.5078C299.576 45.5495 299.289 46.7474 299.133 48.1016C299.003 49.4557 298.938 50.901 298.938 52.4375V53.3359C298.938 54.8984 299.003 56.3698 299.133 57.75C299.289 59.1042 299.589 60.3021 300.031 61.3438C300.474 62.3594 301.112 63.1667 301.945 63.7656C302.779 64.3385 303.885 64.625 305.266 64.625ZM342.336 42.2031V74H329.172V31.7344H341.477L342.336 42.2031ZM354.836 31.4219L354.602 43.6484C354.081 43.5964 353.378 43.5312 352.492 43.4531C351.607 43.375 350.865 43.3359 350.266 43.3359C348.729 43.3359 347.401 43.5182 346.281 43.8828C345.188 44.2214 344.276 44.7422 343.547 45.4453C342.844 46.1224 342.323 46.9818 341.984 48.0234C341.672 49.0651 341.529 50.276 341.555 51.6562L339.172 50.0938C339.172 47.2552 339.445 44.6771 339.992 42.3594C340.565 40.0156 341.372 37.9974 342.414 36.3047C343.456 34.5859 344.719 33.2708 346.203 32.3594C347.688 31.4219 349.354 30.9531 351.203 30.9531C351.854 30.9531 352.492 30.9922 353.117 31.0703C353.768 31.1484 354.341 31.2656 354.836 31.4219ZM373.273 31.7344V74H360.07V31.7344H373.273ZM359.289 20.8359C359.289 18.9609 359.966 17.4245 361.32 16.2266C362.674 15.0286 364.432 14.4297 366.594 14.4297C368.755 14.4297 370.513 15.0286 371.867 16.2266C373.221 17.4245 373.898 18.9609 373.898 20.8359C373.898 22.7109 373.221 24.2474 371.867 25.4453C370.513 26.6432 368.755 27.2422 366.594 27.2422C364.432 27.2422 362.674 26.6432 361.32 25.4453C359.966 24.2474 359.289 22.7109 359.289 20.8359ZM382.258 67.8281C382.258 65.9531 382.935 64.3906 384.289 63.1406C385.643 61.8646 387.388 61.2266 389.523 61.2266C391.685 61.2266 393.43 61.8646 394.758 63.1406C396.112 64.3906 396.789 65.9531 396.789 67.8281C396.789 69.7031 396.112 71.2786 394.758 72.5547C393.43 73.8047 391.685 74.4297 389.523 74.4297C387.388 74.4297 385.643 73.8047 384.289 72.5547C382.935 71.2786 382.258 69.7031 382.258 67.8281ZM405.734 14H418.898V63.6094L417.531 74H405.734V14ZM444.836 52.3984V53.2188C444.836 56.4219 444.51 59.3385 443.859 61.9688C443.208 64.599 442.206 66.8776 440.852 68.8047C439.497 70.7057 437.792 72.1771 435.734 73.2188C433.677 74.2604 431.242 74.7812 428.43 74.7812C425.878 74.7812 423.69 74.2344 421.867 73.1406C420.044 72.0208 418.521 70.4844 417.297 68.5312C416.073 66.5521 415.083 64.2734 414.328 61.6953C413.573 59.0911 412.974 56.3047 412.531 53.3359V52.3594C412.974 49.4167 413.573 46.6562 414.328 44.0781C415.083 41.474 416.073 39.1953 417.297 37.2422C418.521 35.263 420.031 33.7266 421.828 32.6328C423.651 31.513 425.826 30.9531 428.352 30.9531C431.19 30.9531 433.638 31.487 435.695 32.5547C437.779 33.6224 439.497 35.1198 440.852 37.0469C442.206 38.974 443.208 41.2396 443.859 43.8438C444.51 46.4479 444.836 49.2995 444.836 52.3984ZM431.672 53.2188V52.3984C431.672 50.862 431.581 49.4167 431.398 48.0625C431.216 46.7083 430.891 45.5104 430.422 44.4688C429.953 43.4271 429.289 42.6068 428.43 42.0078C427.57 41.4089 426.451 41.1094 425.07 41.1094C423.664 41.1094 422.479 41.3438 421.516 41.8125C420.578 42.2812 419.823 42.9583 419.25 43.8438C418.703 44.7031 418.312 45.7708 418.078 47.0469C417.844 48.2969 417.74 49.7161 417.766 51.3047V54.3906C417.714 56.5521 417.909 58.401 418.352 59.9375C418.794 61.474 419.562 62.6458 420.656 63.4531C421.75 64.2604 423.247 64.6641 425.148 64.6641C426.555 64.6641 427.688 64.3906 428.547 63.8438C429.432 63.2969 430.096 62.5156 430.539 61.5C430.982 60.4844 431.281 59.2734 431.438 57.8672C431.594 56.4609 431.672 54.9115 431.672 53.2188ZM471.164 74.7812C467.727 74.7812 464.654 74.2474 461.945 73.1797C459.237 72.0859 456.945 70.5885 455.07 68.6875C453.221 66.7865 451.802 64.599 450.812 62.125C449.849 59.651 449.367 57.0339 449.367 54.2734V52.7891C449.367 49.6901 449.797 46.8255 450.656 44.1953C451.516 41.5391 452.792 39.2214 454.484 37.2422C456.177 35.263 458.299 33.7266 460.852 32.6328C463.404 31.513 466.372 30.9531 469.758 30.9531C472.753 30.9531 475.435 31.4349 477.805 32.3984C480.174 33.362 482.18 34.7422 483.82 36.5391C485.487 38.3359 486.75 40.5104 487.609 43.0625C488.495 45.6146 488.938 48.4792 488.938 51.6562V57.0078H454.406V48.7656H476.086V47.75C476.112 46.3438 475.865 45.1458 475.344 44.1562C474.849 43.1667 474.12 42.4115 473.156 41.8906C472.193 41.3698 471.021 41.1094 469.641 41.1094C468.208 41.1094 467.023 41.4219 466.086 42.0469C465.174 42.6719 464.458 43.5312 463.938 44.625C463.443 45.6927 463.091 46.9297 462.883 48.3359C462.674 49.7422 462.57 51.2266 462.57 52.7891V54.2734C462.57 55.8359 462.779 57.2552 463.195 58.5312C463.638 59.8073 464.263 60.901 465.07 61.8125C465.904 62.6979 466.893 63.388 468.039 63.8828C469.211 64.3776 470.539 64.625 472.023 64.625C473.82 64.625 475.591 64.2865 477.336 63.6094C479.081 62.9323 480.578 61.8125 481.828 60.25L487.805 67.3594C486.945 68.5833 485.721 69.7682 484.133 70.9141C482.57 72.0599 480.695 72.9974 478.508 73.7266C476.32 74.4297 473.872 74.7812 471.164 74.7812Z" fill="#424242"/>
<path d="M17.6875 69.0391L28.625 31.7344H42.7656L25.7734 80.2891C25.4089 81.3568 24.9271 82.5026 24.3281 83.7266C23.7292 84.9766 22.9089 86.1615 21.8672 87.2812C20.8255 88.401 19.4844 89.3125 17.8438 90.0156C16.2292 90.7188 14.224 91.0703 11.8281 91.0703C10.5521 91.0703 9.61458 91.0052 9.01562 90.875C8.44271 90.7708 7.55729 90.5755 6.35938 90.2891V80.875C6.69792 80.875 6.98438 80.875 7.21875 80.875C7.47917 80.875 7.76562 80.875 8.07812 80.875C9.48438 80.875 10.6042 80.7318 11.4375 80.4453C12.2969 80.1589 12.9479 79.7422 13.3906 79.1953C13.8594 78.6484 14.224 77.9844 14.4844 77.2031L17.6875 69.0391ZM14.9141 31.7344L23.2344 61.3047L24.6797 75.25H15.8516L0.8125 31.7344H14.9141ZM68.4688 31.7344V40.875H43V31.7344H68.4688ZM48.3516 21.2266H61.5156V60.2109C61.5156 61.3307 61.6458 62.2031 61.9062 62.8281C62.1667 63.4271 62.6094 63.8568 63.2344 64.1172C63.8854 64.3516 64.7448 64.4688 65.8125 64.4688C66.5677 64.4688 67.1927 64.4557 67.6875 64.4297C68.1823 64.3776 68.651 64.3125 69.0938 64.2344V73.6484C67.974 74.013 66.8021 74.2865 65.5781 74.4688C64.3542 74.6771 63.0521 74.7812 61.6719 74.7812C58.8594 74.7812 56.4505 74.3385 54.4453 73.4531C52.4661 72.5677 50.9557 71.1745 49.9141 69.2734C48.8724 67.3724 48.3516 64.8984 48.3516 61.8516V21.2266Z" fill="#EF4444"/>
<g clip-path="url(#clip0_10_4)">
<path d="M543 83C545.387 83 547.676 82.0518 549.364 80.364C551.052 78.6761 552 76.3869 552 74H534C534 76.3869 534.948 78.6761 536.636 80.364C538.324 82.0518 540.613 83 543 83ZM547.477 15.9455C547.54 15.3198 547.471 14.6879 547.275 14.0905C547.078 13.4931 546.759 12.9435 546.337 12.4772C545.915 12.0108 545.4 11.6381 544.826 11.383C544.251 11.1279 543.629 10.9961 543 10.9961C542.371 10.9961 541.749 11.1279 541.174 11.383C540.6 11.6381 540.085 12.0108 539.663 12.4772C539.241 12.9435 538.922 13.4931 538.725 14.0905C538.529 14.6879 538.46 15.3198 538.523 15.9455C533.436 16.9801 528.864 19.7406 525.579 23.7598C522.295 27.7789 520.501 32.8096 520.5 38C520.5 42.941 518.25 65 511.5 69.5H574.5C567.75 65 565.5 42.941 565.5 38C565.5 27.11 557.76 18.02 547.477 15.9455Z" fill="#EF4444"/>
<path d="M551.958 33.6695C552.408 33.2353 553.006 32.9953 553.626 33.0001C554.246 33.0048 554.841 33.254 555.283 33.6951C555.726 34.1361 555.983 34.7345 555.999 35.3639C556.016 35.9934 555.79 36.6047 555.371 37.0689L542.645 53.224C542.426 53.4632 542.162 53.6552 541.869 53.7885C541.575 53.9217 541.258 53.9935 540.937 53.9996C540.615 54.0056 540.296 53.9458 539.997 53.8236C539.699 53.7015 539.428 53.5196 539.201 53.2887L530.761 44.7223C530.526 44.5 530.338 44.232 530.207 43.9341C530.076 43.6363 530.006 43.3147 530 42.9887C529.995 42.6627 530.054 42.3388 530.174 42.0365C530.294 41.7342 530.473 41.4595 530.701 41.2289C530.928 40.9984 531.198 40.8166 531.496 40.6945C531.794 40.5724 532.113 40.5124 532.434 40.5181C532.755 40.5239 533.072 40.5952 533.366 40.728C533.659 40.8607 533.923 41.052 534.142 41.2906L540.821 48.0666L551.898 33.7407C551.918 33.7158 551.936 33.692 551.958 33.6695Z" fill="white"/>
</g>
<defs>
<clipPath id="clip0_10_4">
<rect width="72" height="72" fill="white" transform="translate(507 11)"/>
</clipPath>
</defs>
</svg>
