<svg width="285" height="47" viewBox="0 0 285 47" fill="none" xmlns="http://www.w3.org/2000/svg">
<path d="M8.59375 34.5195L14.0625 15.8672H21.1328L12.6367 40.1445C12.4544 40.6784 12.2135 41.2513 11.9141 41.8633C11.6146 42.4883 11.2044 43.0807 10.6836 43.6406C10.1628 44.2005 9.49219 44.6562 8.67188 45.0078C7.86458 45.3594 6.86198 45.5352 5.66406 45.5352C5.02604 45.5352 4.55729 45.5026 4.25781 45.4375C3.97135 45.3854 3.52865 45.2878 2.92969 45.1445V40.4375C3.09896 40.4375 3.24219 40.4375 3.35938 40.4375C3.48958 40.4375 3.63281 40.4375 3.78906 40.4375C4.49219 40.4375 5.05208 40.3659 5.46875 40.2227C5.89844 40.0794 6.22396 39.8711 6.44531 39.5977C6.67969 39.3242 6.86198 38.9922 6.99219 38.6016L8.59375 34.5195ZM7.20703 15.8672L11.3672 30.6523L12.0898 37.625H7.67578L0.15625 15.8672H7.20703ZM33.9844 15.8672V20.4375H21.25V15.8672H33.9844ZM23.9258 10.6133H30.5078V30.1055C30.5078 30.6654 30.5729 31.1016 30.7031 31.4141C30.8333 31.7135 31.0547 31.9284 31.3672 32.0586C31.6927 32.1758 32.1224 32.2344 32.6562 32.2344C33.0339 32.2344 33.3464 32.2279 33.5938 32.2148C33.8411 32.1888 34.0755 32.1562 34.2969 32.1172V36.8242C33.737 37.0065 33.151 37.1432 32.5391 37.2344C31.9271 37.3385 31.276 37.3906 30.5859 37.3906C29.1797 37.3906 27.9753 37.1693 26.9727 36.7266C25.9831 36.2839 25.2279 35.5872 24.707 34.6367C24.1862 33.6862 23.9258 32.4492 23.9258 30.9258V10.6133Z" fill="white"/>
<path d="M53.918 22.1953V27.293H42.1797V22.1953H53.918ZM70.1484 31.0625C70.1484 30.6979 70.0247 30.3854 69.7773 30.125C69.543 29.8516 69.1263 29.6042 68.5273 29.3828C67.9284 29.1484 67.0885 28.9141 66.0078 28.6797C64.9792 28.4583 64.0091 28.1654 63.0977 27.8008C62.1992 27.4362 61.4115 26.9935 60.7344 26.4727C60.0573 25.9518 59.5234 25.3333 59.1328 24.6172C58.7552 23.901 58.5664 23.0807 58.5664 22.1562C58.5664 21.2578 58.7552 20.4115 59.1328 19.6172C59.5234 18.8099 60.0898 18.1003 60.832 17.4883C61.5872 16.8633 62.5052 16.375 63.5859 16.0234C64.6667 15.6589 65.8971 15.4766 67.2773 15.4766C69.1784 15.4766 70.819 15.7695 72.1992 16.3555C73.5794 16.9284 74.6406 17.7357 75.3828 18.7773C76.138 19.806 76.5156 20.9974 76.5156 22.3516H69.9336C69.9336 21.8177 69.8424 21.362 69.6602 20.9844C69.4909 20.6068 69.2109 20.3203 68.8203 20.125C68.4297 19.9167 67.9089 19.8125 67.2578 19.8125C66.8021 19.8125 66.3854 19.8971 66.0078 20.0664C65.6432 20.2357 65.3503 20.4701 65.1289 20.7695C64.9076 21.069 64.7969 21.4206 64.7969 21.8242C64.7969 22.1107 64.862 22.3711 64.9922 22.6055C65.1354 22.8268 65.3503 23.0352 65.6367 23.2305C65.9232 23.4128 66.2878 23.582 66.7305 23.7383C67.1732 23.8815 67.707 24.0117 68.332 24.1289C69.7513 24.3893 71.0794 24.7604 72.3164 25.2422C73.5534 25.724 74.556 26.4076 75.3242 27.293C76.1055 28.1784 76.4961 29.3698 76.4961 30.8672C76.4961 31.8047 76.2812 32.6706 75.8516 33.4648C75.4219 34.2461 74.8034 34.9362 73.9961 35.5352C73.1888 36.1211 72.2188 36.5768 71.0859 36.9023C69.9531 37.2279 68.6771 37.3906 67.2578 37.3906C65.2396 37.3906 63.5339 37.0326 62.1406 36.3164C60.7474 35.5872 59.6927 34.6758 58.9766 33.582C58.2734 32.4753 57.9219 31.3555 57.9219 30.2227H64.0547C64.0807 30.8737 64.237 31.4076 64.5234 31.8242C64.8229 32.2409 65.2201 32.5469 65.7148 32.7422C66.2096 32.9375 66.7826 33.0352 67.4336 33.0352C68.0326 33.0352 68.5273 32.9505 68.918 32.7812C69.3216 32.612 69.6276 32.3841 69.8359 32.0977C70.0443 31.7982 70.1484 31.4531 70.1484 31.0625ZM91.9258 31.8633V15.8672H98.5273V37H92.3555L91.9258 31.8633ZM92.5508 27.5664L94.2695 27.5273C94.2695 28.9466 94.1003 30.2617 93.7617 31.4727C93.4232 32.6706 92.9219 33.7122 92.2578 34.5977C91.6068 35.4831 90.7995 36.1732 89.8359 36.668C88.8854 37.1497 87.7852 37.3906 86.5352 37.3906C85.4935 37.3906 84.5365 37.2474 83.6641 36.9609C82.8047 36.6615 82.0625 36.1992 81.4375 35.5742C80.8125 34.9362 80.3242 34.1224 79.9727 33.1328C79.6341 32.1302 79.4648 30.9323 79.4648 29.5391V15.8672H86.0469V29.5781C86.0469 30.0469 86.1055 30.4505 86.2227 30.7891C86.3398 31.1276 86.5091 31.4141 86.7305 31.6484C86.9518 31.8698 87.2253 32.0391 87.5508 32.1562C87.8893 32.2604 88.2734 32.3125 88.7031 32.3125C89.6927 32.3125 90.4674 32.1042 91.0273 31.6875C91.5872 31.2708 91.9779 30.7044 92.1992 29.9883C92.4336 29.2721 92.5508 28.4648 92.5508 27.5664ZM102.219 7H108.801V31.8047L108.117 37H102.219V7ZM121.77 26.1992V26.6094C121.77 28.2109 121.607 29.6693 121.281 30.9844C120.956 32.2995 120.454 33.4388 119.777 34.4023C119.1 35.3529 118.247 36.0885 117.219 36.6094C116.19 37.1302 114.973 37.3906 113.566 37.3906C112.29 37.3906 111.197 37.1172 110.285 36.5703C109.374 36.0104 108.612 35.2422 108 34.2656C107.388 33.276 106.893 32.1367 106.516 30.8477C106.138 29.5456 105.839 28.1523 105.617 26.668V26.1797C105.839 24.7083 106.138 23.3281 106.516 22.0391C106.893 20.737 107.388 19.5977 108 18.6211C108.612 17.6315 109.367 16.8633 110.266 16.3164C111.177 15.7565 112.264 15.4766 113.527 15.4766C114.947 15.4766 116.171 15.7435 117.199 16.2773C118.241 16.8112 119.1 17.5599 119.777 18.5234C120.454 19.487 120.956 20.6198 121.281 21.9219C121.607 23.224 121.77 24.6497 121.77 26.1992ZM115.188 26.6094V26.1992C115.188 25.431 115.142 24.7083 115.051 24.0312C114.96 23.3542 114.797 22.7552 114.562 22.2344C114.328 21.7135 113.996 21.3034 113.566 21.0039C113.137 20.7044 112.577 20.5547 111.887 20.5547C111.184 20.5547 110.591 20.6719 110.109 20.9062C109.641 21.1406 109.263 21.4792 108.977 21.9219C108.703 22.3516 108.508 22.8854 108.391 23.5234C108.273 24.1484 108.221 24.8581 108.234 25.6523V27.1953C108.208 28.276 108.306 29.2005 108.527 29.9688C108.749 30.737 109.133 31.3229 109.68 31.7266C110.227 32.1302 110.975 32.332 111.926 32.332C112.629 32.332 113.195 32.1953 113.625 31.9219C114.068 31.6484 114.4 31.2578 114.621 30.75C114.842 30.2422 114.992 29.6367 115.07 28.9336C115.148 28.2305 115.188 27.4557 115.188 26.6094ZM135.773 31.0625C135.773 30.6979 135.65 30.3854 135.402 30.125C135.168 29.8516 134.751 29.6042 134.152 29.3828C133.553 29.1484 132.714 28.9141 131.633 28.6797C130.604 28.4583 129.634 28.1654 128.723 27.8008C127.824 27.4362 127.036 26.9935 126.359 26.4727C125.682 25.9518 125.148 25.3333 124.758 24.6172C124.38 23.901 124.191 23.0807 124.191 22.1562C124.191 21.2578 124.38 20.4115 124.758 19.6172C125.148 18.8099 125.715 18.1003 126.457 17.4883C127.212 16.8633 128.13 16.375 129.211 16.0234C130.292 15.6589 131.522 15.4766 132.902 15.4766C134.803 15.4766 136.444 15.7695 137.824 16.3555C139.204 16.9284 140.266 17.7357 141.008 18.7773C141.763 19.806 142.141 20.9974 142.141 22.3516H135.559C135.559 21.8177 135.467 21.362 135.285 20.9844C135.116 20.6068 134.836 20.3203 134.445 20.125C134.055 19.9167 133.534 19.8125 132.883 19.8125C132.427 19.8125 132.01 19.8971 131.633 20.0664C131.268 20.2357 130.975 20.4701 130.754 20.7695C130.533 21.069 130.422 21.4206 130.422 21.8242C130.422 22.1107 130.487 22.3711 130.617 22.6055C130.76 22.8268 130.975 23.0352 131.262 23.2305C131.548 23.4128 131.913 23.582 132.355 23.7383C132.798 23.8815 133.332 24.0117 133.957 24.1289C135.376 24.3893 136.704 24.7604 137.941 25.2422C139.178 25.724 140.181 26.4076 140.949 27.293C141.73 28.1784 142.121 29.3698 142.121 30.8672C142.121 31.8047 141.906 32.6706 141.477 33.4648C141.047 34.2461 140.428 34.9362 139.621 35.5352C138.814 36.1211 137.844 36.5768 136.711 36.9023C135.578 37.2279 134.302 37.3906 132.883 37.3906C130.865 37.3906 129.159 37.0326 127.766 36.3164C126.372 35.5872 125.318 34.6758 124.602 33.582C123.898 32.4753 123.547 31.3555 123.547 30.2227H129.68C129.706 30.8737 129.862 31.4076 130.148 31.8242C130.448 32.2409 130.845 32.5469 131.34 32.7422C131.835 32.9375 132.408 33.0352 133.059 33.0352C133.658 33.0352 134.152 32.9505 134.543 32.7812C134.947 32.612 135.253 32.3841 135.461 32.0977C135.669 31.7982 135.773 31.4531 135.773 31.0625ZM154.133 32.3125C154.745 32.3125 155.266 32.2018 155.695 31.9805C156.138 31.7461 156.47 31.4206 156.691 31.0039C156.926 30.5742 157.036 30.0599 157.023 29.4609H163.215C163.228 31.0495 162.837 32.4427 162.043 33.6406C161.262 34.8255 160.194 35.75 158.84 36.4141C157.499 37.0651 155.982 37.3906 154.289 37.3906C152.635 37.3906 151.19 37.1237 149.953 36.5898C148.716 36.043 147.681 35.2878 146.848 34.3242C146.027 33.3477 145.409 32.2083 144.992 30.9062C144.589 29.6042 144.387 28.1914 144.387 26.668V26.2188C144.387 24.6953 144.589 23.2826 144.992 21.9805C145.409 20.6654 146.027 19.526 146.848 18.5625C147.681 17.5859 148.71 16.8307 149.934 16.2969C151.171 15.75 152.609 15.4766 154.25 15.4766C156.008 15.4766 157.557 15.8086 158.898 16.4727C160.253 17.1367 161.314 18.1003 162.082 19.3633C162.85 20.6263 163.228 22.1562 163.215 23.9531H157.023C157.036 23.3151 156.939 22.7422 156.73 22.2344C156.522 21.7266 156.197 21.3229 155.754 21.0234C155.324 20.7109 154.771 20.5547 154.094 20.5547C153.417 20.5547 152.87 20.7044 152.453 21.0039C152.036 21.3034 151.717 21.7201 151.496 22.2539C151.288 22.7747 151.145 23.3737 151.066 24.0508C151.001 24.7279 150.969 25.4505 150.969 26.2188V26.668C150.969 27.4492 151.001 28.1849 151.066 28.875C151.145 29.5521 151.294 30.151 151.516 30.6719C151.737 31.1797 152.056 31.5833 152.473 31.8828C152.889 32.1693 153.443 32.3125 154.133 32.3125ZM172.668 21.1016V37H166.086V15.8672H172.238L172.668 21.1016ZM178.918 15.7109L178.801 21.8242C178.54 21.7982 178.189 21.7656 177.746 21.7266C177.303 21.6875 176.932 21.668 176.633 21.668C175.865 21.668 175.201 21.7591 174.641 21.9414C174.094 22.1107 173.638 22.3711 173.273 22.7227C172.922 23.0612 172.661 23.4909 172.492 24.0117C172.336 24.5326 172.264 25.138 172.277 25.8281L171.086 25.0469C171.086 23.6276 171.223 22.3385 171.496 21.1797C171.783 20.0078 172.186 18.9987 172.707 18.1523C173.228 17.293 173.859 16.6354 174.602 16.1797C175.344 15.7109 176.177 15.4766 177.102 15.4766C177.427 15.4766 177.746 15.4961 178.059 15.5352C178.384 15.5742 178.671 15.6328 178.918 15.7109ZM188.137 15.8672V37H181.535V15.8672H188.137ZM181.145 10.418C181.145 9.48047 181.483 8.71224 182.16 8.11328C182.837 7.51432 183.716 7.21484 184.797 7.21484C185.878 7.21484 186.757 7.51432 187.434 8.11328C188.111 8.71224 188.449 9.48047 188.449 10.418C188.449 11.3555 188.111 12.1237 187.434 12.7227C186.757 13.3216 185.878 13.6211 184.797 13.6211C183.716 13.6211 182.837 13.3216 182.16 12.7227C181.483 12.1237 181.145 11.3555 181.145 10.418ZM192.629 33.9141C192.629 32.9766 192.967 32.1953 193.645 31.5703C194.322 30.9323 195.194 30.6133 196.262 30.6133C197.342 30.6133 198.215 30.9323 198.879 31.5703C199.556 32.1953 199.895 32.9766 199.895 33.9141C199.895 34.8516 199.556 35.6393 198.879 36.2773C198.215 36.9023 197.342 37.2148 196.262 37.2148C195.194 37.2148 194.322 36.9023 193.645 36.2773C192.967 35.6393 192.629 34.8516 192.629 33.9141ZM204.367 7H210.949V31.8047L210.266 37H204.367V7ZM223.918 26.1992V26.6094C223.918 28.2109 223.755 29.6693 223.43 30.9844C223.104 32.2995 222.603 33.4388 221.926 34.4023C221.249 35.3529 220.396 36.0885 219.367 36.6094C218.339 37.1302 217.121 37.3906 215.715 37.3906C214.439 37.3906 213.345 37.1172 212.434 36.5703C211.522 36.0104 210.76 35.2422 210.148 34.2656C209.536 33.276 209.042 32.1367 208.664 30.8477C208.286 29.5456 207.987 28.1523 207.766 26.668V26.1797C207.987 24.7083 208.286 23.3281 208.664 22.0391C209.042 20.737 209.536 19.5977 210.148 18.6211C210.76 17.6315 211.516 16.8633 212.414 16.3164C213.326 15.7565 214.413 15.4766 215.676 15.4766C217.095 15.4766 218.319 15.7435 219.348 16.2773C220.389 16.8112 221.249 17.5599 221.926 18.5234C222.603 19.487 223.104 20.6198 223.43 21.9219C223.755 23.224 223.918 24.6497 223.918 26.1992ZM217.336 26.6094V26.1992C217.336 25.431 217.29 24.7083 217.199 24.0312C217.108 23.3542 216.945 22.7552 216.711 22.2344C216.477 21.7135 216.145 21.3034 215.715 21.0039C215.285 20.7044 214.725 20.5547 214.035 20.5547C213.332 20.5547 212.74 20.6719 212.258 20.9062C211.789 21.1406 211.411 21.4792 211.125 21.9219C210.852 22.3516 210.656 22.8854 210.539 23.5234C210.422 24.1484 210.37 24.8581 210.383 25.6523V27.1953C210.357 28.276 210.454 29.2005 210.676 29.9688C210.897 30.737 211.281 31.3229 211.828 31.7266C212.375 32.1302 213.124 32.332 214.074 32.332C214.777 32.332 215.344 32.1953 215.773 31.9219C216.216 31.6484 216.548 31.2578 216.77 30.75C216.991 30.2422 217.141 29.6367 217.219 28.9336C217.297 28.2305 217.336 27.4557 217.336 26.6094ZM237.082 37.3906C235.363 37.3906 233.827 37.1237 232.473 36.5898C231.118 36.043 229.973 35.2943 229.035 34.3438C228.111 33.3932 227.401 32.2995 226.906 31.0625C226.424 29.8255 226.184 28.5169 226.184 27.1367V26.3945C226.184 24.8451 226.398 23.4128 226.828 22.0977C227.258 20.7695 227.896 19.6107 228.742 18.6211C229.589 17.6315 230.65 16.8633 231.926 16.3164C233.202 15.7565 234.686 15.4766 236.379 15.4766C237.876 15.4766 239.217 15.7174 240.402 16.1992C241.587 16.681 242.59 17.3711 243.41 18.2695C244.243 19.168 244.875 20.2552 245.305 21.5312C245.747 22.8073 245.969 24.2396 245.969 25.8281V28.5039H228.703V24.3828H239.543V23.875C239.556 23.1719 239.432 22.5729 239.172 22.0781C238.924 21.5833 238.56 21.2057 238.078 20.9453C237.596 20.6849 237.01 20.5547 236.32 20.5547C235.604 20.5547 235.012 20.7109 234.543 21.0234C234.087 21.3359 233.729 21.7656 233.469 22.3125C233.221 22.8464 233.046 23.4648 232.941 24.168C232.837 24.8711 232.785 25.6133 232.785 26.3945V27.1367C232.785 27.918 232.889 28.6276 233.098 29.2656C233.319 29.9036 233.632 30.4505 234.035 30.9062C234.452 31.349 234.947 31.694 235.52 31.9414C236.105 32.1888 236.77 32.3125 237.512 32.3125C238.41 32.3125 239.296 32.1432 240.168 31.8047C241.04 31.4661 241.789 30.9062 242.414 30.125L245.402 33.6797C244.973 34.2917 244.361 34.8841 243.566 35.457C242.785 36.0299 241.848 36.4987 240.754 36.8633C239.66 37.2148 238.436 37.3906 237.082 37.3906Z" fill="white"/>
<path fill-rule="evenodd" clip-rule="evenodd" d="M273.828 37.8284C273.078 38.5786 272.061 39 271 39C269.939 39 268.922 38.5786 268.172 37.8284C267.421 37.0783 267 36.0609 267 35H275C275 36.0609 274.579 37.0783 273.828 37.8284ZM272.9 8.37356C272.987 8.63906 273.018 8.91992 272.99 9.19801C277.56 10.12 281 14.16 281 19C281 21.196 282 31 285 33H257C260 31 261 21.196 261 19C261 16.6932 261.798 14.4573 263.258 12.671C264.717 10.8847 266.749 9.65781 269.01 9.19801C268.982 8.91992 269.013 8.63906 269.1 8.37356C269.187 8.10805 269.329 7.86379 269.517 7.65653C269.704 7.44926 269.933 7.2836 270.189 7.17022C270.444 7.05684 270.721 6.99826 271 6.99826C271.279 6.99826 271.556 7.05684 271.811 7.17022C272.067 7.2836 272.296 7.44926 272.483 7.65653C272.671 7.86379 272.813 8.10805 272.9 8.37356ZM275.723 16.7778C275.447 16.7757 275.181 16.8824 274.982 17.0754C274.972 17.0854 274.963 17.0959 274.955 17.107L270.032 23.4741L267.063 20.4625C266.966 20.3565 266.848 20.2714 266.718 20.2124C266.588 20.1535 266.447 20.1217 266.304 20.1192C266.161 20.1166 266.02 20.1433 265.887 20.1976C265.755 20.2518 265.635 20.3326 265.534 20.4351C265.433 20.5376 265.353 20.6596 265.3 20.794C265.246 20.9284 265.22 21.0723 265.222 21.2172C265.225 21.3621 265.256 21.505 265.314 21.6374C265.372 21.7698 265.456 21.8889 265.561 21.9877L269.311 25.795C269.412 25.8976 269.533 25.9785 269.665 26.0327C269.798 26.087 269.94 26.1136 270.083 26.1109C270.226 26.1083 270.367 26.0763 270.497 26.0171C270.628 25.9579 270.745 25.8725 270.842 25.7662L276.498 18.5862C276.685 18.3799 276.785 18.1082 276.777 17.8284C276.77 17.5487 276.656 17.2827 276.459 17.0867C276.262 16.8907 275.998 16.7799 275.723 16.7778Z" fill="white"/>
</svg>
